<?xml version="1.0" encoding="UTF-8" standalone="no"?>
<!-- Created with Inkscape (http://www.inkscape.org/) -->

<svg
   xmlns:dc="http://purl.org/dc/elements/1.1/"
   xmlns:cc="http://creativecommons.org/ns#"
   xmlns:rdf="http://www.w3.org/1999/02/22-rdf-syntax-ns#"
   xmlns:svg="http://www.w3.org/2000/svg"
   xmlns="http://www.w3.org/2000/svg"
   xmlns:sodipodi="http://sodipodi.sourceforge.net/DTD/sodipodi-0.dtd"
   xmlns:inkscape="http://www.inkscape.org/namespaces/inkscape"
   version="1.1"
   id="svg64"
   width="1525"
   height="372"
   viewBox="0 0 1525 372"
   sodipodi:docname="Danganronpa_V3_logo.svg"
   inkscape:version="0.92.4 (5da689c313, 2019-01-14)">
  <metadata
     id="metadata70">
    <rdf:RDF>
      <cc:Work
         rdf:about="">
        <dc:format>image/svg+xml</dc:format>
        <dc:type
           rdf:resource="http://purl.org/dc/dcmitype/StillImage" />
        <dc:title></dc:title>
      </cc:Work>
    </rdf:RDF>
  </metadata>
  <defs
     id="defs68" />
  <sodipodi:namedview
     pagecolor="#ffffff"
     bordercolor="#666666"
     borderopacity="1"
     objecttolerance="10"
     gridtolerance="10"
     guidetolerance="10"
     inkscape:pageopacity="0"
     inkscape:pageshadow="2"
     inkscape:window-width="1920"
     inkscape:window-height="1015"
     id="namedview66"
     showgrid="false"
     inkscape:zoom="3.1900949"
     inkscape:cx="891.69715"
     inkscape:cy="80.66256"
     inkscape:window-x="0"
     inkscape:window-y="0"
     inkscape:window-maximized="1"
     inkscape:current-layer="svg64" />
  <path
     id="path74"
     style="fill:#000000"
     d="m 1503.2773,15.751953 -2.5,0.429688 c -1.375,0.23713 -43.9802,7.986303 -94.6777,17.220703 l -92.1777,16.791015 6.2617,1.576172 c 14.5526,3.66331 15.783,8.671267 6.3769,25.966797 -3.976,7.31086 -80.1475,127.598702 -82.041,129.556642 -0.6289,0.65033 -0.7597,0.30065 -0.375,-1 0.3253,-1.1 4.4427,-22.025 9.1504,-46.5 4.7077,-24.475 9.8554,-51.18815 11.4395,-59.36328 4.4312,-22.867215 8.595,-29.925361 24.2754,-41.142581 4.9927,-3.5716 8.6699,-6.492234 8.1718,-6.490234 -0.7011,0.0034 -88.7409,14.08408 -95.4004,15.257813 -0.8223,0.14494 1.0863,1.525269 4.2403,3.068359 6.9752,3.41266 13.2779,9.53192 17.1504,16.650391 4.1617,7.650086 4.4265,14.873202 1.2519,34.019532 -0.1902,1.14721 -1.108,6.98935 -1.4804,9.31055 0.286,1.18266 0.3427,2.32423 -0.2539,2.875 -0.076,0.0701 -0.1589,0.13901 -0.2364,0.20898 -2.6053,16.31069 -7.4791,47.26208 -13.1426,83.60547 -6.8994,44.275 -12.8164,81.79755 -13.1484,83.38476 -0.5744,2.7466 -0.4684,2.85362 2.1934,2.18555 6.3158,-1.58518 174.0691,-67.86914 172.7636,-68.26367 -0.4626,-0.13979 -23.6793,5.47982 -51.5918,12.48828 -27.9125,7.00847 -50.75,12.60349 -50.75,12.43359 0,-0.1699 15.2888,-19.05224 33.9747,-41.96093 18.686,-22.9087 33.8368,-41.78814 33.6699,-41.95508 -0.167,-0.16694 -12.1931,3.69411 -26.7246,8.58008 -14.5315,4.88597 -26.5611,8.75512 -26.7325,8.59961 -0.3484,-0.31621 110.9882,-97.781461 151.3125,-132.460941 28.9329,-24.88269 34.3624,-28.754703 51.8692,-36.988281 6.6716,-3.137701 13.2558,-6.240082 14.6308,-6.894532 z M 195.99414,21.8125 c -57.59845,-0.02142 -56.96756,-0.07606 -62.39844,5.408203 -1.47494,1.48945 -13.22599,18.990575 -26.11328,38.890625 -22.628904,34.942762 -23.489057,36.455622 -25.136717,44.181642 -0.93835,4.4 -1.911679,8.72695 -2.162109,9.61523 -0.36202,1.28407 0.829709,1.85659 5.818359,2.79688 11.94818,2.25206 24.989667,10.79952 29.353517,19.23828 1.7211,3.32824 2.76918,3.57685 4.01953,0.95703 0.49654,-1.04041 12.14881,-19.26541 25.89453,-40.5 l 24.99219,-38.607421 h 26.78906 c 29.08423,0 29.38556,0.06111 26.92969,5.451172 -1.85554,4.07246 -52.20828,81.703559 -58.07031,89.529299 -12.7514,17.023 -23.98604,25.11646 -37.73438,27.18554 -3.794,0.57098 -7.79844,1.2019 -8.89844,1.40235 -1.24676,0.22719 -3.12986,2.54238 -5,6.14453 -3.73591,7.19588 -13.82017,17.99896 -21.730465,23.28125 l -5.998047,4.00586 35.365232,-0.0215 c 46.95369,-0.0277 49.31532,-0.56035 59.70703,-13.47851 6.21539,-7.72648 91.71797,-140.371543 94.8086,-147.082032 3.29962,-7.164271 3.89738,-13.018414 1.99609,-19.515626 C 275.36717,30.243423 268.28899,24.581163 256.07031,22.814453 252.31045,22.270803 225.48044,21.8235 195.99414,21.8125 Z m 428.2832,26.923828 -5.08398,5.667969 -5.08203,5.666015 v -3.296874 c 0,-2.348141 -0.78352,-3.970702 -2.72266,-5.638672 -2.70335,-2.32533 -2.90376,-2.341419 -28.41797,-2.324219 -29.03612,0.01963 -35.50596,0.899594 -45.42382,6.183594 -8.62595,4.59568 -15.26271,11.467315 -23.98047,24.828125 -4.11625,6.30855 -15.65279,24.015094 -25.63672,39.347654 -26.50859,40.70988 -27.52982,38.62305 18.88672,38.62305 36.67858,0 36.83183,-0.0252 43.8457,-7.03906 1.71355,-1.71355 3.11523,-2.82278 3.11523,-2.46485 0,1.45431 -14.38703,21.66264 -16.74023,23.51367 -1.39433,1.09679 -4.83658,2.77304 -7.64844,3.72461 -4.74363,1.6053 -16.36585,1.75197 -161.11133,2.04883 l -156,0.32031 -12.75,19.8379 c -7.0125,10.91031 -12.75,20.34737 -12.75,20.9707 0,0.84101 43.52186,1.06153 168.75,0.85937 l 168.75,-0.27148 8,-2.72461 c 10.34981,-3.52464 19.33987,-8.8473 27.06836,-16.02734 7.1921,-6.68172 3.65888,-1.57882 47.94727,-69.24805 37.27736,-56.956919 39.07404,-59.558827 50.16797,-72.603517 4.02395,-4.73152 7.3164,-8.89402 7.3164,-9.25 0,-0.35597 -9.1125,-0.658528 -20.25,-0.673828 z m 91.69922,0.115234 c -30.07741,-0.04939 -36.78562,0.19328 -39.14258,1.41211 -2.96424,1.53287 -13.38681,17.185329 -12.45117,18.699219 0.28193,0.45617 12.74809,0.83675 27.70313,0.84375 14.95504,0.0075 28.2039,0.285547 29.4414,0.617187 1.2375,0.33163 2.25,1.345726 2.25,2.253906 0,2.29318 -4.57495,8.799884 -7.26953,10.339844 -1.57259,0.89874 -9.62432,1.422941 -27.28711,1.775391 l -25.05664,0.5 -7.5625,3.740234 c -5.6042,2.77158 -9.24594,5.523223 -14.06054,10.626953 -6.92478,7.340624 -20.89019,27.479104 -25.79688,37.199224 -5.23042,10.36139 -3.3778,17.22051 5.5332,20.47851 3.08869,1.12927 8.21482,1.39963 22.5,1.18945 20.50347,-0.30168 21.4461,-0.54479 29.22657,-7.54101 l 4.10742,-3.69336 -2.78321,4.22461 c -4.59212,6.97024 -3.98731,7.27539 14.4668,7.27539 11.88127,0 16.7943,-0.36852 18.8086,-1.41016 3.46527,-1.79196 47.00703,-68.514141 55.22265,-84.621091 6.4626,-12.67009 3.94699,-21.301388 -6.71875,-23.054688 -2.65707,-0.43678 -21.16605,-0.822668 -41.13086,-0.855469 z m 99.76953,0.0293 v 0.002 0.002 l -0.002,0.002 -0.002,0.002 c -15.50448,-0.0038 -17.49878,0.386368 -19.96485,1.724609 -2.67084,1.44937 -6.41246,6.373753 -15.79296,20.789063 -44.61236,68.556886 -55.30348,85.423666 -54.73243,86.347656 0.38768,0.62728 5.34097,1.04297 12.44922,1.04297 10.07512,0 12.1603,-0.27885 14.2168,-1.89649 1.3254,-1.04256 14.32349,-20.16517 28.88476,-42.49414 l 26.47461,-40.597652 13.28125,-0.0059 c 14.79772,-0.007 15.61925,0.384666 12.69727,6.035156 -0.91608,1.7715 -11.58704,18.349164 -23.71289,36.839846 -26.26985,40.05877 -26.09654,39.77626 -25.28711,41.08594 0.43494,0.70374 52.81937,1.0332 164.37891,1.0332 H 1112.375 l 0.8965,-2.47852 c -0.7784,-1.1452 -1.6629,-2.24063 -2.5176,-3.34961 -1.1491,0.82078 -3.2116,0.82813 -9.1094,0.82813 -2.0957,0 -3.6269,-0.0391 -4.8925,-0.10547 -1.4961,2.46262 -4.3465,2.39047 -6.9942,1.5625 -0.4342,0.0164 -0.8694,0.0221 -1.3047,-0.0254 -0.1816,-0.0617 -0.3631,-0.1244 -0.5449,-0.18555 -0.8272,-0.21891 -1.7566,-0.32322 -2.4746,-0.48828 -0.2542,-0.0769 -0.5306,-0.1566 -0.6914,-0.21484 0,-7.9e-4 0,-0.003 -0.01,-0.004 -1.2032,0.002 -2.309,0.005 -3.3867,0 -0.085,-0.002 -0.1708,-0.004 -0.2559,-0.008 -0.035,-0.001 -0.1416,0.003 -0.1074,-0.006 -0.9036,0.11911 -1.8738,0.12144 -2.7265,-0.20898 -0.1104,0 -0.2403,0.0614 -0.3321,0 -0.011,-0.008 0.01,-0.0106 0.014,-0.0156 -0.8759,0.0295 -1.8329,0.0314 -2.6035,0.0527 -0.2636,-0.0466 -0.5299,-0.0815 -0.791,-0.14062 -0.1303,-0.0294 -0.4027,-0.005 -0.4024,-0.11133 -0.1351,-7.3e-4 -0.2712,-1.6e-4 -0.4062,-0.006 -0.075,-0.003 -0.1512,-0.008 -0.2266,-0.0137 -1.1578,0.27171 -2.0903,-0.064 -3.0605,-0.43359 -0.1783,-0.0282 -0.4058,-0.0635 -0.4121,-0.0645 -0.1059,-0.0312 -0.2142,-0.0522 -0.3164,-0.0937 -0.01,-0.004 0.017,-0.031 0.01,-0.0332 -0.1203,-0.0239 -0.2431,-0.0347 -0.3652,-0.0488 -0.4245,-0.002 -0.8491,-0.005 -1.2735,-0.008 l -0.035,0.0996 -5.7246,0.30273 c -2.6145,0.13812 -4.0021,0.18947 -4.6973,-0.0156 -1.1611,0.21448 -2.2769,0.32369 -3.5351,0.24414 -1.645,0 -3.2886,-0.002 -4.9336,0 -2.7092,0.004 -5.4197,0.001 -8.1289,-0.01 -1.7805,-0.002 -3.5626,0.13079 -5.3399,-0.041 -0.2374,-0.0305 -0.5883,-0.0611 -0.6015,-0.10352 -0.8995,0.70858 -1.6875,1.10948 -3.1641,0.11328 -1.9684,-1e-4 -3.936,0.66531 -5.9043,0.66602 -1.9118,4.3e-4 -3.8226,-0.006 -5.7344,-0.008 -1.7175,0.003 -3.4373,0.0333 -5.1543,-0.0176 -0.9849,-0.0176 -2.0219,-0.12066 -3.0039,-0.0117 -0.5203,0.0576 -1.0358,0.16041 -1.5586,0.18555 -0.5,0.024 -1.0015,-0.0259 -1.5019,-0.0391 -1.8691,-0.22968 -2.3648,-0.24901 -4.3594,-0.77539 -0.2132,0.003 -0.4261,0.0135 -0.6387,-0.002 -0.024,-0.002 -0.065,-0.0457 -0.043,-0.0566 0.1183,-0.0604 0.5106,-0.13349 0.379,-0.11719 -0.7289,0.0902 -1.4502,0.45146 -2.1758,0.33789 -0.7415,-0.116 -1.4517,-0.36389 -2.1563,-0.63281 -0.044,-0.002 -0.12112,-0.01 -0.15622,-0.0117 -0.939,-0.0339 -1.90086,-0.15383 -2.83985,-0.29297 -0.37523,0.0144 -0.74982,0.0319 -1.125,0.0391 -0.39844,-0.0292 -0.9869,0.25674 -1.19531,-0.084 -0.0368,-0.0602 -0.0594,-0.1279 -0.0937,-0.18945 -1.00296,2e-5 -2.00685,-1e-4 -3.00977,0 -0.42825,-4.8e-4 -0.85496,-0.004 -1.2832,0 -0.4018,0.003 -0.80367,0.002 -1.20508,-0.0176 -0.28422,0.01 -0.58162,0.0864 -0.86328,0.0703 -0.69485,-0.0397 -0.941,-0.11959 -1.21875,-0.27734 -0.0743,-0.002 -0.14793,-0.004 -0.24609,-0.008 -0.034,-0.001 -0.0727,-0.009 -0.10157,-0.0117 -1.15638,0.12087 -2.32724,0.13886 -3.46679,-0.12891 -1.09012,-0.31208 0.40757,0.10323 -0.87891,-0.19336 -0.0336,-0.008 -0.0575,-0.0478 -0.0918,-0.0508 -0.5762,-0.0499 -1.16195,-0.008 -1.70312,-0.25781 -0.10765,0.002 -0.22019,-0.002 -0.3418,-0.0156 -0.20124,8.7e-4 -0.40246,-0.003 -0.60351,0.0215 -0.0267,0.001 -0.0552,0.005 -0.082,0.006 -1.66136,0.47139 -3.34189,0.77072 -5.08008,0.64843 -1.55752,1e-5 -3.11436,1.4e-4 -4.67188,0 -1.31884,-4e-5 -2.63818,3.5e-4 -3.95703,0 -1.8857,-8.8e-4 -3.77056,0.006 -5.65625,0.0117 -1.71154,0.002 -3.42339,-0.0211 -5.13476,-0.0137 -1.62091,0.0326 -3.28372,0.17464 -4.90235,0.0859 -0.47102,-0.0257 -0.94084,-0.0692 -1.41015,-0.11914 -0.0319,0.01 -0.062,0.0265 -0.0937,0.0352 -1.66657,0.44425 -2.9155,0.72865 -4.54102,0.63477 -1.15296,0 -2.30602,2e-5 -3.45898,0 -1.81296,10e-6 -3.62651,1.8e-4 -5.43946,0 -5.25793,-0.71407 -10.18345,0.56945 -14.57422,0.5957 -1.3868,0 -2.10883,-0.12749 -2.48828,-0.65234 -0.0377,-0.003 -0.0756,-0.008 -0.11328,-0.0117 0.41212,-0.16006 -0.87221,0.14744 -1.3125,0.1875 -0.19087,0.0174 -0.3768,0.0232 -0.56445,0.0332 -0.43713,0.3565 -1.17909,0.43555 -2.47071,0.43555 -0.7426,0 -1.29555,-0.0273 -1.71484,-0.10742 -0.0338,0.009 -0.0772,0.0384 -0.10742,0.041 0.0166,-0.008 0.0341,-0.0159 0.0371,-0.041 2.2e-4,-0.002 -2.4e-4,-0.008 0,-0.01 -0.10971,-0.0234 -0.20125,-0.0549 -0.29102,-0.0879 0.0587,0.0833 0.13453,0.13353 0.23828,0.13281 -0.0839,0.0295 -0.26324,-0.0561 -0.38476,-0.0723 -0.43152,-0.0445 -0.86267,-0.0964 -1.2832,0.0508 -0.33041,0.0635 -0.66065,0.1321 -0.99219,0.18945 -0.14947,0.0259 -0.49064,0 -0.58203,0 -1.1673,0.0691 -2.41542,-0.0104 -3.48243,-0.22851 -0.0293,0.11098 -0.0561,0.202 -0.0859,0.31836 -0.0413,0.16126 -1.36356,0.0294 -2.71094,-0.16407 -0.47361,0.0168 -0.94746,0.0245 -1.42383,0.0156 -3.84958,-1.1e-4 -7.53373,0.0941 -11.05078,-0.43945 -0.22547,-0.0814 -0.0842,-0.0285 -0.27148,-0.0957 -2.5843,-0.11178 -5.1842,0.4666 -7.66602,0.4668 -0.008,0.006 -0.0131,0.007 -0.0215,0.0137 -0.17698,0.13129 1.02634,0.0557 0.0898,0.0937 -1.43262,0.033 -2.74144,0.0149 -4.06641,0.0156 -0.49693,-5.1e-4 -0.9933,-7e-5 -1.49023,0 -0.39387,-1e-5 -0.78775,0 -1.18164,0 -0.41015,1e-5 -0.82031,0 -1.23047,0 h -1.09375 -1.2832 c -5.88468,-0.22841 -12.01584,-0.10157 -17.99219,-0.10157 -16.71158,0 -20.01751,-0.23464 -19.57617,-1.38476 0.29206,-0.76108 11.14336,-17.59145 24.11328,-37.40234 12.96994,-19.810901 24.46992,-37.976671 25.55469,-40.367192 1.19793,-2.639889 1.98084,-6.550447 1.99414,-9.960938 0.0259,-6.626539 -1.95303,-9.756218 -8.32227,-13.162109 -4.04671,-2.15593 -5.1147,-2.21772 -41.15234,-2.5 -8.68912,-0.06807 -15.35827,-0.111979 -20.52735,-0.113282 z m -474.61328,0.41211 c -38.72443,0 -40.22211,0.07071 -42.40039,2 -2.97836,2.63791 -10.95508,14.928769 -10.95508,16.880859 0,1.33341 3.74198,1.570842 28.91797,1.826172 15.90498,0.1613 29.23306,0.609204 29.61914,0.996094 1.31099,1.31374 -0.58784,5.881313 -3.99023,9.595703 l -3.39063,3.701172 -25.82812,0.5 -25.82813,0.5 -6.91406,3.273437 c -4.99869,2.36718 -8.87736,5.27619 -14,10.5 -7.35193,7.497124 -21.36164,27.377244 -26.58398,37.722654 -5.26849,10.43681 -3.43673,17.28214 5.49804,20.54883 3.08869,1.12927 8.21482,1.39963 22.5,1.18945 20.50347,-0.30168 21.4461,-0.54479 29.22657,-7.54101 l 4.10742,-3.69336 -2.78321,4.22461 c -4.59212,6.97024 -3.98731,7.27539 14.4668,7.27539 12.01735,0 16.78293,-0.36279 18.85742,-1.43555 1.93088,-0.99849 9.63004,-12.03422 25.28907,-36.25 12.38195,-19.14796 24.3676,-37.964451 26.63476,-41.814451 7.029,-11.93641 8.64607,-18.804033 5.74805,-24.408203 -2.79464,-5.40423 -4.4065,-5.591797 -48.19141,-5.591797 z m 115.14453,0 c -36.4476,0 -38.10955,0.0817 -40.6582,2 -2.28972,1.72341 -67.25259,100.079361 -68.9668,104.417971 -0.34368,0.86984 -0.43004,1.91953 -0.1914,2.33203 0.23864,0.4125 5.74686,0.75 12.24023,0.75 10.2826,0 12.13451,-0.25831 14.34375,-1.99609 1.39511,-1.0974 14.39321,-20.22176 28.88477,-42.5 l 26.34765,-40.505864 13.48828,0.25 c 12.03673,0.22417 13.52442,0.444039 13.83008,2.037109 0.36663,1.91081 -1.87777,5.519079 -31.13086,50.085935 -10.42305,15.87947 -19.00316,29.60447 -19.06836,30.5 -0.10558,1.44952 2.2292,1.6578 21.2754,1.89844 17.35642,0.21929 21.81197,-0.004 23.60937,-1.18164 2.6407,-1.73026 50.77685,-74.799465 54.21875,-82.302735 3.04832,-6.64528 3.27774,-14.457889 0.53516,-18.167969 -1.06458,-1.44013 -3.91943,-3.742187 -6.34571,-5.117187 l -4.41211,-2.5 z m 131.74024,22.666015 c 8.65242,-0.02157 14.75976,0.08552 14.75976,0.28711 0,0.91459 -22.28384,35.026656 -25.90039,39.648436 -7.27544,9.29765 -15.92333,13.93289 -29.52148,15.82422 -9.23053,1.28385 -28.57813,1.42944 -28.57813,0.21484 0,-0.47293 8.04191,-13.18543 17.8711,-28.249996 l 17.87109,-27.390625 24.12891,-0.267578 c 3.3177,-0.03682 6.485,-0.05922 9.36914,-0.06641 z m 842.25972,2.38086 -10.039,8.476562 c -44.8201,37.843034 -113.3998,96.371664 -113.1797,96.591794 0.1494,0.14937 18.6921,-6.90992 41.207,-15.68554 22.515,-8.77563 41.2374,-15.83571 41.6035,-15.69141 0.366,0.1443 -17.5045,15.99989 -39.7129,35.23633 -22.2082,19.23644 -40.3789,35.07175 -40.3789,35.18945 0,0.1177 3.4875,-1.74044 7.75,-4.12891 10.14,-5.68189 24.5353,-11.75683 35.75,-15.08789 12.2377,-3.63492 26.0456,-3.94575 32.1231,-0.72265 11.9196,6.32131 15.4319,19.01465 8.7012,31.44922 -3.5841,6.62131 -15.5178,18.83961 -25.6914,26.30468 -40.871,29.98997 -100.5729,51.51932 -150.1329,54.14063 -24.5816,1.30016 -38.0475,-3.48937 -41.416,-14.73242 -2.6169,-8.73453 1.201,-17.30827 17.8867,-40.16992 3.3462,-4.58464 -43.4542,30.38804 -67.1582,50.18554 -21.5956,18.03653 -40.8136,35.3664 -58.8125,53.03321 -11.7218,11.50566 -14.0357,14.14914 -9.498,10.84179 27.261,-19.86927 50.4528,-32.80908 71.1309,-39.68554 23.684,-7.87603 44.0093,-8.24733 51.0214,-0.9336 2.6656,2.78026 2.8684,3.58613 3.1836,12.67774 0.1851,5.34006 -0.094,12.07387 -0.6191,14.96484 l -0.9551,5.25781 2.6192,-1.71679 c 30.4251,-19.93984 72.3577,-39.86729 97.6093,-46.38672 29.2838,-7.56041 47.4296,-6.25527 53.7227,3.86523 3.2258,5.1877 3.047,14.43269 -0.4434,22.97266 l -2.5722,6.29297 3.6504,-2.71094 c 6.4032,-4.75666 25.4265,-19.63125 32.0937,-25.09375 4.7736,-3.91107 6.6772,-4.95409 7.3457,-4.0293 0.6364,0.88038 0.7445,0.75321 0.3672,-0.42969 -0.2942,-0.92228 0.071,-2.17877 0.8105,-2.79296 1.0526,-0.87355 1.681,-0.44243 2.8887,1.97851 0.8492,1.70219 1.2938,3.85867 0.9883,4.79297 -0.3054,0.9343 0.3867,0.23672 1.5371,-1.55078 1.1504,-1.7875 2.9974,-3.31789 4.1055,-3.40039 1.1081,-0.0825 2.565,-0.195 3.2363,-0.25 0.6712,-0.055 1.7888,1.02539 2.4844,2.40039 0.6957,1.375 1.2693,1.9375 1.2793,1.25 0.01,-0.6875 0.6906,-1.25 1.5156,-1.25 0.825,0 1.5,-0.45 1.5,-1 0,-1.8336 2.1801,-1.02942 2.7109,1 0.2965,1.13405 1.3636,2 2.4649,2 1.0684,0 1.6599,-0.45861 1.3144,-1.01758 -0.3454,-0.55897 -1.0851,-0.73317 -1.6425,-0.38867 -0.5574,0.34451 -0.2826,-0.78906 0.6113,-2.51758 1.8674,-3.61122 3.9199,-3.10967 3.3437,0.81641 -0.3375,2.29967 -0.049,2.64103 2.1543,2.55273 1.7073,-0.0685 2.9727,-0.98118 3.8496,-2.77734 1.6854,-3.45197 0.6857,-4.96754 -2.9257,-4.4375 -2.0323,0.29827 -2.8809,-5.3e-4 -2.8809,-1.01172 0,-0.86296 0.5966,-1.20333 1.498,-0.85742 0.9157,0.35138 2.1241,-0.38295 3.1094,-1.88672 1.8151,-2.77017 1.2208,-5.72944 -0.9805,-4.88477 -1.8442,0.70785 -2.9314,-2.53038 -2.041,-6.07812 0.4895,-1.95032 0.3018,-2.60726 -0.709,-2.4668 -2.8603,0.3977 -3.7476,-0.10571 -3.6015,-2.04492 0.083,-1.1 0.6982,-2 1.3691,-2 0.6709,0 1.4864,-0.84167 1.8125,-1.86914 0.3261,-1.02746 1.5591,-2.71496 2.7383,-3.75 1.9411,-1.70376 2.0836,-1.71522 1.5059,-0.13086 -0.3513,0.9625 -0.3716,2.47018 -0.025,3.34961 0.4626,1.20533 1.0088,0.74743 2.2187,-1.85547 0.8827,-1.89913 2.2218,-4.19236 2.9766,-5.09766 1.038,-1.24488 1.0704,-1.64648 0.1289,-1.64648 -0.991,0 -0.9882,-0.3061 -0.01,-1.49024 1.0738,-1.2938 1.4814,-1.17832 3.0996,0.87891 1.0249,1.30295 2.9638,2.57888 4.3086,2.83594 2.3549,0.45017 2.3871,0.38115 0.9063,-1.87891 -0.8456,-1.29058 -1.8866,-2.3457 -2.3145,-2.3457 -1.6334,0 -1.9724,-3.35804 -0.4941,-4.89453 0.8501,-0.88353 2.4715,-2.8475 3.6035,-4.36524 1.132,-1.51774 2.4725,-2.5041 2.9785,-2.1914 0.5059,0.3127 0.9199,-0.0403 0.9199,-0.78516 0,-0.74485 3.3581,-5.83348 7.4629,-11.30859 17.3457,-23.13618 24.6862,-44.30698 21.1817,-61.09375 -2.958,-14.16851 -8.5873,-21.07178 -20.0157,-24.54297 -8.9247,-2.71084 -23.7101,-2.127 -37.6289,1.48633 -5.225,1.35641 -9.6413,2.33778 -9.8144,2.18164 -0.1732,-0.15613 25.7018,-18.61082 57.5,-41.01172 31.7981,-22.40091 58.2535,-41.133868 58.791,-41.628908 0.5374,-0.49501 -0.3626,-0.459546 -2,0.08008 -7.7942,2.56836 -115.4928,34.07422 -116.4785,34.07422 -0.6194,0 4.8446,-6.6375 12.1426,-14.75 7.2979,-8.112524 16.8899,-18.789684 21.3144,-23.726564 z M 315.2168,98.792969 c 11.61688,0 14.45323,0.275738 14.90429,1.451171 0.3198,0.83337 -3.20474,7.12993 -8.27539,14.7832 -9.16144,13.82762 -13.06508,17.62064 -20.91797,20.32618 -2.1777,0.75028 -8.62263,1.66471 -14.32226,2.0332 -8.54788,0.55263 -10.58045,0.41006 -11.60156,-0.82031 -1.2568,-1.51434 -0.85817,-2.21495 16.98632,-29.81641 1.97105,-3.04877 4.7757,-6.08627 6.23243,-6.75 1.67508,-0.76321 7.92121,-1.207031 16.99414,-1.207031 z m 376.2832,0 c 14.58641,0 15.27734,0.08982 15.27734,1.990231 0,2.70724 -13.72536,23.60686 -18.57031,28.27735 -2.14955,2.07214 -6.24886,4.64386 -9.11133,5.71484 -3.34038,1.2498 -8.89666,2.13572 -15.51172,2.47266 -10.33996,0.52667 -12.80664,0.2185 -12.80664,-1.59961 0,-1.74632 21.22142,-33.89685 23.36524,-35.39844 1.60131,-1.121596 5.59647,-1.457031 17.35742,-1.457031 z M 79.388672,110.17773 c -0.798362,0.25911 -4.355053,5.35505 -6.486328,9.36524 -1.11407,2.09624 -0.992189,2.25 1.769531,2.25 2.79311,0 3.029724,-0.32294 4.121094,-5.58008 0.63704,-3.06861 0.96131,-5.77697 0.71875,-6.01953 -0.02746,-0.0275 -0.06982,-0.0329 -0.123047,-0.0156 z m -3.279297,13.93555 c -0.659336,-0.0386 -1.997329,0.0759 -3.443359,0.31055 -3.04461,0.49407 -4.122186,1.53619 -8.197266,7.92773 -2.58059,4.0475 -4.691406,7.59094 -4.691406,7.875 0,0.28405 1.0125,0.13407 2.25,-0.33398 1.2375,-0.46804 4.540132,-1.164 7.339844,-1.54688 l 5.089843,-0.69726 1.207031,-6.54688 c 0.663573,-3.60134 1.049592,-6.70626 0.857422,-6.89844 -0.04804,-0.048 -0.19233,-0.077 -0.412109,-0.0898 z m 5.089844,0.44336 c -1.099454,0.019 -1.810821,0.21576 -1.939453,0.625 -0.5496,1.74849 -2.482422,11.60476 -2.482422,12.66016 0,0.52293 0.820245,0.95117 1.822265,0.95117 8.65547,0 21.447861,10.27658 24.597661,19.75976 0.95727,2.88206 1.87369,5.24024 2.03515,5.24024 0.16146,0 2.64964,-3.58835 5.5293,-7.97461 l 5.23437,-7.97656 -2.53906,-4.33203 c -3.5041,-5.9793 -10.78069,-12.4289 -17.248046,-15.28907 -4.932585,-2.18142 -11.711404,-3.72105 -15.009765,-3.66406 z m -11.263672,26.30664 c -1.158215,0.0489 -3.149169,0.70188 -6.371094,1.9082 -6.56254,2.45708 -12.199367,7.02611 -15.929687,12.90821 -3.51387,5.54078 -3.593132,7.11328 -0.357422,7.11328 1.61145,0 2.5,0.56199 2.5,1.58008 0,1.23033 -0.654811,1.43467 -2.962891,0.92773 -2.63142,-0.57796 -3.04055,-0.34179 -3.65625,2.11133 -0.84874,3.38165 1.003021,10.70637 3.644531,14.41601 1.07549,1.51044 3.871984,3.70441 6.214844,4.87696 5.72922,2.86732 9.160362,2.45166 9.576172,-1.16211 0.17403,-1.5125 0.882962,-2.75 1.576172,-2.75 0.84135,0 1.109157,1.03287 0.804687,3.10742 -0.4497,3.06396 -0.407762,3.09769 2.923829,2.37695 8.741686,-1.89115 17.620936,-8.8965 21.753906,-17.16015 l 2.08789,-4.17383 -2.980468,-0.6543 c -3.94092,-0.86557 -3.799072,-2.29149 0.267578,-2.68359 2.55715,-0.24656 3.32131,-0.82301 3.58789,-2.70899 0.98379,-6.95996 -4.93173,-16.18169 -12.03125,-18.7539 -5.30409,-1.92171 -6.49703,-1.6457 -7.15625,1.65039 -0.33,1.65 -1.1175,3 -1.75,3 -0.74445,0 -0.939191,-1.05797 -0.550781,-3 0.410884,-2.05444 0.297727,-2.99251 -1.191406,-2.92969 z m 879.882813,1.25 c -0.10877,0.0389 -0.21397,0.0889 -0.32031,0.13477 0.0433,-0.01 0.0878,-0.0145 0.13086,-0.0254 0.0709,-0.0179 0.25829,-0.13403 0.18945,-0.10938 z m 48.43945,0.53906 c -0.0765,-0.0237 0.1343,0.0888 0.20117,0.13282 -0.0389,-0.039 -0.0487,-0.0561 -0.084,-0.0918 -0.0393,-0.0126 -0.0778,-0.0288 -0.11719,-0.041 z m -2.53906,0.1211 c -0.0865,0.002 -0.1578,0.008 -0.25781,0.008 0.0439,0.18065 0.23089,0.12887 0.44336,0.0312 -0.0617,-0.0139 -0.12378,-0.0256 -0.18555,-0.0391 z m 40.65825,0.36523 c -0.4059,-0.052 -0.8686,0.28981 -1.2364,0.50195 0.3939,-0.20265 0.827,-0.34796 1.2364,-0.50195 z m -966.207078,9.84961 c 0.03709,-0.008 0.07305,-0.006 0.107422,0.004 1.10073,0.33076 1.100872,0.44373 0.05273,6.55078 l -0.728516,4.25 h 5.587891 c 3.07334,0 5.587891,0.45 5.587891,1 0,0.55423 -2.643628,1 -5.929688,1 h -5.927734 l -1.142578,5.5 c -1.28716,6.20022 -3.631474,7.80362 -2.558594,1.75 0.36553,-2.0625 0.896957,-4.5375 1.179688,-5.5 0.446117,-1.51867 -0.223248,-1.75 -5.054688,-1.75 -4.1878,0 -5.566406,-0.35844 -5.566406,-1.44531 0,-1.11387 1.307461,-1.40025 5.707031,-1.25 l 5.707031,0.19531 1.042969,-5.30078 c 0.537731,-2.73308 1.379264,-4.88223 1.935547,-5.00391 z m 1058.224578,1.6582 c -19.9966,0.0189 -39.7549,0.55442 -41.2304,1.5879 -2.9135,2.04069 -12.7031,17.23884 -11.92,18.50585 0.4301,0.69594 10.2032,1.05826 28.8418,1.06836 15.5051,0.008 28.8026,0.40208 29.5489,0.875 2.5307,1.60349 -2.1296,9.55902 -7.2149,12.31641 -1.3774,0.74686 -11.2461,1.36723 -27.6426,1.74023 l -25.5,0.58008 -6.5,3.48633 c -9.0797,4.86936 -16.9609,13.19727 -27.9082,29.48633 -10.7719,16.02803 -14.068,22.49109 -14.082,27.61523 -0.012,4.29963 2.9911,8.54051 7.4063,10.46289 3.7747,1.64351 37.1456,1.94831 42.7539,0.39063 2.0181,-0.56053 5.9556,-3.07358 8.75,-5.58594 2.7943,-2.51236 5.08,-4.38903 5.08,-4.16992 0,0.21912 -1.125,1.9234 -2.5,3.78711 -1.375,1.86371 -2.5,4.20021 -2.5,5.19336 0,1.67195 1.2915,1.80664 17.4434,1.80664 16.699,0 17.5494,-0.0961 19.8906,-2.25 2.1107,-1.94182 17.478,-25.24466 42.9258,-65.08985 16.2159,-25.38999 18.0036,-35.65059 7.0215,-40.29882 -2.433,-1.02978 -22.6674,-1.52677 -42.6641,-1.50782 z m -298.3613,0.0606 -3.02343,2.54297 c -3.50741,2.95129 -67.37212,100.81848 -68.02735,104.24609 -0.43806,2.2912 -0.41472,2.29688 11.54297,2.29688 10.449,0 12.30657,-0.25413 14.51367,-1.99024 1.39197,-1.09492 14.39007,-20.20852 28.88477,-42.47265 l 26.35351,-40.47852 12.55078,-0.0293 c 8.01333,-0.0185 12.95621,0.37807 13.67579,1.09765 2.01027,2.01027 2.45368,1.26376 -31.88282,53.54102 -9.81466,14.94279 -17.84375,27.88029 -17.84375,28.75 0,1.39367 2.60269,1.58203 21.94336,1.58203 21.35573,0 22.01108,-0.0603 24.42383,-2.25 3.66632,-3.32731 51.66894,-77.34133 53.80274,-82.95703 3.57589,-9.41099 1.65001,-17.07397 -5.35157,-21.29297 -3.14443,-1.89477 -5.3778,-2.01529 -42.4414,-2.29297 z m 117.85547,0.0859 -2.47461,2.25 c -2.96896,2.69897 -92.63672,140.26703 -92.63672,142.12305 0,0.7115 0.29935,1.59427 0.66602,1.96093 1.23084,1.23085 32.06612,0.74415 34.9082,-0.55078 1.82044,-0.82945 7.47763,-8.53025 17.79688,-24.22851 10.73353,-16.32851 15.21647,-22.40417 15.43164,-20.91016 0.16679,1.15814 1.44099,3.17462 2.83008,4.48047 2.51368,2.36306 2.65279,2.3766 29.84375,2.66992 25.47734,0.27483 27.73693,0.15433 33.5,-1.78711 11.12358,-3.74726 22.16049,-12.12602 29.43359,-22.3457 8.0607,-11.32635 39.6878,-60.66531 41.6289,-64.94141 2.3338,-5.14088 2.4938,-10.51517 0.4004,-13.5039 -3.674,-5.24539 -3.3488,-5.2168 -59.33399,-5.2168 z m -185.48633,0.0996 c -4.09537,0.0179 -8.70527,0.0556 -13.90234,0.10742 -34.69029,0.34584 -36.4605,0.45614 -41.82617,2.59375 -3.08154,1.22765 -7.2088,3.68657 -9.17188,5.46484 -4.63669,4.20019 -58.76077,88.18003 -59.41015,92.18164 -0.35091,2.16241 0.13622,3.85544 1.66797,5.80274 l 2.16211,2.75 H 682.875 c 38.41587,0 41.30585,-0.12408 46.6543,-2.00391 12.60733,-4.43112 27.69072,-16.97565 36.06836,-29.99609 3.00801,-4.675 12.34184,-19.075 20.74218,-32 8.40034,-12.925 15.58441,-24.7417 15.96485,-26.25781 1.07727,-4.29313 -0.34197,-9.46173 -3.62696,-13.20313 -4.09377,-4.66266 -7.60776,-5.56456 -36.27539,-5.43945 z m -148.93554,0.004 c -7.79656,0.0154 -10.31296,0.3847 -12.18946,1.37891 -2.21165,1.17179 -10.75214,13.462 -32.5,46.76953 -38.87771,59.54245 -38.24675,58.53967 -37.51562,59.72266 0.39879,0.64524 7.95112,1.02539 20.35156,1.02539 15.85053,0 20.13565,-0.29248 21.8457,-1.49024 1.17004,-0.81952 10.36929,-14.20702 20.44336,-29.75 20.2887,-31.30284 26.33765,-38.40194 37.33204,-43.81445 3.92966,-1.93457 9.21839,-3.52193 13.93359,-4.18359 l 7.59961,-1.06641 5.19336,3.22656 c 4.36409,2.71287 5.56567,3.05841 7.53711,2.16016 2.43939,-1.11146 21.48499,-29.26058 21.67383,-32.0332 0.0874,-1.28338 -1.6135,-1.60442 -9.89454,-1.875 -17.83667,-0.58283 -26.93955,2.24852 -37.65429,11.71484 -2.5594,2.26119 -4.93456,4.11133 -5.2793,4.11133 -0.34475,0 1.42546,-2.99713 3.93359,-6.66016 2.50813,-3.66304 4.39664,-7.15054 4.19727,-7.75 -0.23972,-0.72081 -6.7687,-1.19384 -19.2793,-1.39453 -3.94429,-0.0633 -7.12966,-0.0969 -9.72851,-0.0918 z m -583.070316,19.84375 -5.230468,8.22852 c -5.06491,7.96793 -5.184887,8.31873 -3.753907,11.08594 2.01903,3.90436 8.053225,10.47548 12.765625,13.90234 3.64543,2.65096 4.530641,2.83594 13.580078,2.83594 h 9.681641 l 1.033203,-4.51563 c 1.00746,-4.40258 0.969552,-4.52772 -1.580078,-5.06836 -12.6393,-2.68017 -21.323959,-10.05948 -24.792969,-21.06445 z m 687.412106,2.05274 h 17.01563 c 14.26636,0 17.10898,0.24336 17.5957,1.51172 0.8665,2.25806 -24.82537,41.24786 -33.02344,50.11523 -8.2333,8.90548 -13.10846,11.94673 -22.25586,13.88477 -14.58234,3.08953 -23.97014,1.39217 -21.20507,-3.83203 3.7172,-7.02311 36.50817,-56.64041 38.94531,-58.92969 z m 272.96485,0 c 11.30836,0 18.12266,0.38316 18.52926,1.04101 1.0574,1.71097 -25.06179,41.37919 -30.25582,45.95118 -5.99127,5.2737 -15.05686,9.65871 -23.76954,11.49609 -7.98285,1.68346 -20.08692,1.98968 -20.98828,0.53125 -0.33289,-0.53864 -0.1545,-1.82008 0.39649,-2.84961 3.38909,-6.33257 33.69642,-52.06856 35.73047,-53.91992 2.37022,-2.1573 3.20891,-2.25 20.35742,-2.25 z m -889.90039,1 -3.021488,4.39062 c -6.763818,9.83087 -17.898985,16.89331 -29.728515,18.85352 -5.68574,0.94216 -6.445711,1.34147 -6.957031,3.65625 -0.31576,1.42948 -0.787889,3.38711 -1.048828,4.34961 -0.430352,1.58735 0.521273,1.75 10.246093,1.75 10.46964,0 10.87708,-0.0852 17.31836,-3.6543 7.98717,-4.4257 20.471869,-16.75209 24.408199,-24.09765 l 2.8125,-5.24805 h -7.01562 z m -82.587894,16.68164 c -0.759018,0.10976 -1.882596,1.78328 -4.449218,6.10351 -2.369191,3.98796 -4.0195452,7.8723 -3.699219,8.70704 0.46994,1.22466 2.783067,1.50781 12.341797,1.50781 h 11.763672 l -3.695313,-2.50977 c -3.3039,-2.24506 -8.364133,-8.08242 -11.351563,-13.09179 -0.295131,-0.49488 -0.565147,-0.76669 -0.910156,-0.7168 z M 1086.1523,214.79297 h 15.8125 c 14.4136,0 15.8125,0.1553 15.8125,1.75586 0,0.96577 -3.8281,7.48938 -8.5078,14.49609 -9.3022,13.9279 -14.7068,18.68395 -23.4922,20.67774 -5.7675,1.30889 -22.695,1.37425 -23.4882,0.0898 -0.3329,-0.53864 -0.088,-1.94275 0.5429,-3.12109 2.7916,-5.21606 18.3995,-28.66104 20.7364,-31.14844 z m 378.6993,20.14258 c -0.2892,-0.008 -0.6391,0.0886 -1.0235,0.32617 -0.5955,0.36808 -0.8012,1.12758 -0.4551,1.6875 0.4221,0.68303 0.983,0.66456 1.7012,-0.0527 0.9626,-0.96261 0.6448,-1.93558 -0.2226,-1.96093 z m 9.3007,4.29687 c -0.2842,0.0206 -0.5544,0.0746 -0.8027,0.16992 -1.5863,0.60873 -2.1393,3.49154 -0.9062,4.72461 1.5762,1.57626 6.3339,0.14417 6.3339,-1.90625 0,-1.56941 -2.6355,-3.13254 -4.625,-2.98828 z m -20.4277,15.06446 c -0.4718,-0.0267 -0.5672,0.32191 -0.2891,1.04687 0.6446,1.67981 1.011,1.7948 1.7774,0.55469 0.3043,-0.49236 -0.097,-1.1446 -0.8906,-1.44922 -0.2406,-0.0924 -0.4404,-0.14344 -0.5977,-0.15234 z m -19.9473,9.49609 c -0.55,0 -1,0.45 -1,1 0,0.55 0.45,1 1,1 0.55,0 1,-0.45 1,-1 0,-0.55 -0.45,-1 -1,-1 z m -908.71089,18 -4.20899,6 -4.20703,6 h 88.5625 c 48.71013,0 88.56445,0.23241 88.56445,0.51562 0,0.28325 -4.05,6.77598 -9,14.42969 -4.95,7.6537 -9,14.17134 -9,14.48438 0,0.81581 410.15516,0.56707 412.20896,-0.25 1.4337,-0.57034 26.791,-39.04174 26.791,-40.64649 0,-0.29352 -45.1458,-0.5332 -100.3242,-0.5332 H 914.12891 l -9.92579,14.69726 c -5.45911,8.08354 -11.19525,15.62104 -12.74609,16.75 -2.54234,1.85074 -4.54226,2.08286 -20.32617,2.36719 -14.6803,0.26444 -17.89679,0.0605 -19.92969,-1.27148 -4.12396,-2.70212 -3.19512,-6.26828 4.88477,-18.75196 4.01977,-6.21066 7.6459,-11.85351 8.05859,-12.54101 0.59911,-0.99804 -33.49924,-1.25 -169.16406,-1.25 z m 899.41599,4.36914 c -0.2876,-0.029 -0.5983,0.1237 -0.9316,0.45703 -0.55,0.55 -0.6727,1.52798 -0.2735,2.17383 0.4838,0.78284 1.0581,0.8405 1.7247,0.17383 0.55,-0.55 0.6745,-1.52798 0.2753,-2.17383 -0.2419,-0.39142 -0.5073,-0.60182 -0.7949,-0.63086 z m -602.40623,2.62109 c 1.193,0.0321 0.51149,1.0191 -7.79297,14.77149 l -7.99414,13.23828 h -4.75586 c -2.61591,0 -4.75635,-0.1125 -4.75586,-0.25 4.8e-4,-0.1375 1.32594,-5.18835 2.94532,-11.22266 1.61938,-6.0343 2.79705,-11.11895 2.61523,-11.30078 -0.18182,-0.18182 -3.37406,4.86708 -7.09375,11.2207 -5.06464,8.65096 -7.26689,11.55274 -8.76953,11.55274 -1.8204,0 -1.86798,-0.16235 -0.49609,-1.75 0.83169,-0.9625 4.78583,-7.2625 8.78515,-14 l 7.27149,-12.25 h 4.9375 c 4.23429,0 4.8662,0.24961 4.42187,1.75 -1.85276,6.25633 -4.64779,18.55142 -4.29687,18.90234 0.23185,0.23185 3.22811,-4.31969 6.6582,-10.11523 3.43716,-5.80749 6.8974,-10.53711 7.71094,-10.53711 0.23021,0 0.43894,-0.01 0.60937,-0.01 z m -112.95703,0.01 h 3.85547 3.85547 l -3.49805,5.19531 c -1.92412,2.85716 -3.29724,5.39611 -3.05078,5.64258 0.24647,0.24646 3.37717,-2.12464 6.95703,-5.26758 4.35274,-3.82149 7.20198,-5.60758 8.59961,-5.39258 1.76573,0.27163 1.32826,0.90031 -2.81445,4.04883 l -4.90235,3.72656 -1.83984,10.02344 -1.83984,10.02344 h -4.33203 c -2.38293,0 -4.32732,-0.1125 -4.32032,-0.25 0.007,-0.1375 0.67634,-2.725 1.48828,-5.75 0.81194,-3.025 1.4813,-5.69046 1.48828,-5.92383 0.0374,-1.33759 -5.48666,5.01706 -7.10546,8.17383 -1.72548,3.36481 -2.32432,3.75 -5.82813,3.75 h -3.90625 l 8.59766,-14 z m 29.75195,0 h 3.71875 l -8.59375,14 c -8.56316,13.9502 -8.6064,14 -12.3125,14 h -3.71875 l 8.59375,-14 c 8.56316,-13.9502 8.6064,-14 12.3125,-14 z m 53.97657,0 h 3.74804 l -8.49414,14 c -8.32012,13.71503 -8.56391,14 -11.99218,14 -1.92476,0 -3.34936,-0.38154 -3.16602,-0.84766 0.18333,-0.46611 3.89442,-6.76611 8.24609,-14 7.89392,-13.12222 7.91976,-13.15234 11.65821,-13.15234 z m 45.5664,0 c 4.6,0 8.35566,0.3375 8.34766,0.75 -0.0523,2.56334 -2.19801,3.53166 -8.05274,3.63672 l -6.27929,0.11328 -5.25,8.5 c -2.88837,4.675 -5.28683,8.8375 -5.32813,9.25 -0.0413,0.4125 1.01987,0.75 2.35742,0.75 1.54294,0 3.18787,-1.06159 4.5,-2.9043 2.42937,-3.41174 2.68582,-5.54692 0.56836,-4.73437 -1.8352,0.70423 -1.87545,-0.28224 -0.10742,-2.61133 0.9835,-1.2956 2.76469,-1.75 6.85938,-1.75 h 5.52929 l -5.0664,8.5 c -4.48848,7.52934 -5.39549,8.5 -7.94922,8.5 -1.84168,0 -2.63928,-0.39706 -2.20508,-1.09961 0.49424,-0.79969 0.11923,-0.79969 -1.375,0 -2.24732,1.20273 -9.45323,1.4999 -10.51953,0.43359 -0.36667,-0.36666 -0.66602,-1.36014 -0.66602,-2.20703 0,-2.15514 10.25105,-19.10457 13.54883,-22.40234 2.53134,-2.53134 3.31644,-2.72461 11.08789,-2.72461 z m 81.71289,0 h 3.80274 3.80273 l -2.97656,4.69531 c -3.67217,5.79041 -3.69989,6.52049 -0.22852,6.1211 2.16047,-0.24859 3.35216,-1.44187 5.5625,-5.56641 2.65443,-4.95324 3.03404,-5.25 6.70899,-5.25 h 3.89648 l -7.95898,13.25 c -4.37649,7.2875 -8.08066,13.62113 -8.23242,14.07422 -0.15176,0.4531 -1.93293,0.67809 -3.95703,0.5 l -3.67969,-0.32422 3.43164,-5.5 c 1.88771,-3.025 3.44268,-5.86738 3.45508,-6.31641 0.0124,-0.449 -1.21139,-0.67403 -2.72071,-0.5 -2.19368,0.25294 -3.44752,1.56426 -6.25,6.53906 -3.33779,5.92508 -3.6902,6.22461 -7.33984,6.25 -2.10834,0.0147 -3.68334,-0.31015 -3.5,-0.72265 0.18333,-0.4125 3.89927,-6.7125 8.25781,-14 z m 51.91407,0 h 9.36914 c 5.77959,0 9.36718,0.39574 9.36718,1.0332 0,2.42287 -5.23808,11.08135 -7.88867,13.04102 -2.21259,1.63584 -3.17228,3.5031 -4.13281,8.02929 l -1.25195,5.89649 h -3.86329 c -4.4302,0 -4.58905,-0.51794 -2.25195,-7.37695 2.86176,-8.39879 -0.20717,-7.32217 -5.11133,1.79296 -2.84456,5.28705 -3.20048,5.57708 -6.86523,5.58008 -3.77404,0.003 -3.83101,-0.0491 -2.40625,-2.24609 0.80251,-1.2375 4.51469,-7.5375 8.24805,-14 z m 29.73628,0 c 2.75,0 5,0.39634 5,0.88086 0,0.48452 -1.1219,3.85952 -2.4921,7.5 -1.3703,3.64048 -2.3006,6.61914 -2.0684,6.61914 0.2322,0 3.2128,-3.375 6.625,-7.5 6.1281,-7.4086 6.2626,-7.5 10.9512,-7.5 h 4.7461 l -7.877,13.25 c -4.3327,7.2875 -8.0033,13.62113 -8.1562,14.07422 -0.1529,0.4531 -1.9381,0.67809 -3.9668,0.5 l -3.6875,-0.32422 2.7773,-4.5 c 4.2029,-6.80961 9.3395,-16 8.9434,-16 -0.1932,0 -4.1627,4.70623 -8.8223,10.45898 -6.12767,7.56511 -9.0953,10.4707 -10.72266,10.5 -1.2375,0.0222 -2.25,-0.32466 -2.25,-0.77148 0,-0.44683 1.34705,-4.79914 2.99414,-9.67188 1.6471,-4.87275 2.83064,-9.02483 2.62891,-9.22656 -0.20173,-0.20173 -2.948,4.15058 -6.10156,9.67188 -3.15356,5.5213 -6.36016,10.03906 -7.12695,10.03906 -0.7668,0 -1.39454,-0.16936 -1.39454,-0.375 0,-0.20563 3.375,-6.15627 7.5,-13.22461 4.125,-7.06833 7.5,-13.20092 7.5,-13.62695 0,-0.42603 2.25085,-0.77344 4.99996,-0.77344 z m 37.6954,0 c 7.1223,0 8.3046,0.23917 8.3046,1.68555 0,2.78117 -10.7896,20.95911 -14.0878,23.73437 -2.6944,2.26715 -3.9661,2.58008 -10.5196,2.58008 -5.717,0 -7.59,-0.35095 -8.0332,-1.50586 -0.7145,-1.86213 8.7171,-18.79937 12.9434,-23.24414 3.0025,-3.1576 3.3247,-3.25 11.3926,-3.25 z m 19.6621,0 h 5.3574 l -2.3887,10.13476 c -1.3144,5.57403 -2.202,10.32137 -1.9726,10.55079 0.2294,0.22942 3.0554,-4.32297 6.2812,-10.11719 3.8414,-6.9002 6.4515,-10.54174 7.5645,-10.55274 1.2908,-0.0127 -0.2421,3.35002 -6.375,13.98438 l -8.0743,14 h -4.375 c -5.2095,0 -5.1773,0.16737 -2.2753,-12.19336 1.1545,-4.9177 1.9216,-9.11933 1.705,-9.33594 -0.5294,-0.52944 -11.8047,18.94857 -11.8047,20.39258 0,0.62537 -0.9,1.13672 -2,1.13672 -1.1,0 -2,-0.15443 -2,-0.3418 0,-0.18737 3.375,-6.12294 7.5,-13.1914 4.125,-7.06847 7.5,-13.216 7.5,-13.66016 0,-0.44417 2.4108,-0.80664 5.3575,-0.80664 z m 24.1172,0 h 4.4746 l -0.5411,3.25 c -0.2975,1.7875 -0.7647,4.375 -1.039,5.75 -0.4215,2.11333 0.406,1.61067 5.3457,-3.25 3.3596,-3.30586 6.7326,-5.75 7.9355,-5.75 1.6012,0 -0.01,2.05338 -6.8476,8.74805 -4.9168,4.81139 -10.2926,11.11139 -11.9453,14 -2.706,4.72957 -3.3459,5.25195 -6.4317,5.25195 -1.8846,0 -3.4258,-0.20624 -3.4258,-0.45703 0,-0.2508 1.3214,-2.69855 2.9375,-5.43946 2.4997,-4.2396 5.0625,-14.95689 5.0625,-21.17578 0,-0.5102 2.0135,-0.92773 4.4747,-0.92773 z m -331.16606,0.0332 c 2.79382,-0.0244 3.60568,0.29995 3.04492,1.2168 -0.42049,0.6875 -3.58925,5.75 -7.04102,11.25 l -6.27539,10 4.50977,0.5 c 4.45326,0.49375 4.48891,0.52813 2.92383,2.75 -1.41924,2.01482 -2.42368,2.25 -9.61133,2.25 -4.41464,0 -7.8767,-0.35711 -7.69336,-0.79297 0.18333,-0.43587 3.93398,-6.72095 8.33398,-13.9668 7.9937,-13.16391 8.00258,-13.17383 11.8086,-13.20703 z m 19.9414,0.0137 c 2.0625,-0.0257 3.75,0.12477 3.75,0.33399 0,0.20923 -2.92237,5.04673 -6.49414,10.75 -3.57177,5.70328 -6.497,10.70664 -6.5,11.11914 -0.003,0.4125 1.79414,0.75 3.99414,0.75 4.39941,0 4.94328,0.83762 2.17188,3.3457 -1.36958,1.23945 -3.76904,1.6543 -9.55664,1.6543 h -7.72852 l 2.30664,-3.79688 c 1.26867,-2.08761 5.00664,-8.36646 8.30664,-13.95312 5.889,-9.96965 6.06938,-10.15723 9.75,-10.20313 z m 184.60743,0.01 c 3.45354,-0.0458 4.23811,0.25046 3.78711,1.42578 -0.31296,0.81552 -2.23775,7.11552 -4.27735,14 l -3.70898,12.51758 h -4.27735 -4.27929 l 1.44921,-3.46875 c 0.79694,-1.90734 1.44922,-3.70734 1.44922,-4 0,-0.29267 -1.986,-0.53125 -4.41211,-0.53125 -3.69804,0 -4.8296,0.4968 -7,3.07617 -1.42389,1.69219 -2.58789,3.49219 -2.58789,4 0,0.5078 -1.1729,0.92383 -2.60742,0.92383 -2.38626,0 -1.89696,-0.76914 5.75,-9.02735 4.59702,-4.96447 10.15742,-11.23766 12.35742,-13.9414 3.65551,-4.49252 4.37567,-4.92181 8.35743,-4.97461 z m 460.36323,1.01758 c -0.071,-0.0116 -0.153,-0.0114 -0.2441,0.002 -0.2428,0.0356 -0.5542,0.16296 -0.9258,0.39258 -0.5955,0.36808 -0.7941,1.13632 -0.4414,1.70703 0.4152,0.67187 0.9297,0.56871 1.461,-0.29102 0.6508,-1.05312 0.6492,-1.72939 0.1503,-1.81054 z m -437.50581,2.92578 c -1.97655,0 -5.71485,4.18959 -5.71485,6.4043 0,1.75075 4.96539,0.29712 6.38477,-1.86915 2.20246,-3.36137 2.02867,-4.53515 -0.66992,-4.53515 z m 56.67581,0 c -1.7981,0 -3.3347,1.80205 -7.3321,8.59375 -2.7819,4.7267 -5.0586,9.0017 -5.0586,9.5 0,0.4983 1.2548,0.90625 2.7891,0.90625 2.4633,0 3.3874,-1.04614 7.9004,-8.93359 2.811,-4.91296 4.857,-9.18796 4.5449,-9.5 -0.312,-0.31205 -1.5924,-0.56641 -2.8437,-0.56641 z m 377.6093,0 c -0.55,0 -1,0.675 -1,1.5 0,0.825 0.45,1.5 1,1.5 0.55,0 1,-0.675 1,-1.5 0,-0.825 -0.45,-1.5 -1,-1.5 z m -462.85933,2.5 -4.07031,3.95312 c -2.23868,2.17412 -4.07032,4.31162 -4.07032,4.75 0,0.43838 1.1092,0.79688 2.46485,0.79688 2.60011,0 3.80348,-1.5752 4.96679,-6.5 z m 459.85933,0.5 c -0.55,0 -1,0.45 -1,1 0,0.55 0.45,1 1,1 0.55,0 1,-0.45 1,-1 0,-0.55 -0.45,-1 -1,-1 z m 27,6 c -0.55,0 -1,0.675 -1,1.5 0,0.825 0.45,1.5 1,1.5 0.55,0 1,-0.675 1,-1.5 0,-0.825 -0.45,-1.5 -1,-1.5 z m -32.4414,11 c -0.2425,0 -0.7187,0.45 -1.0586,1 -0.3399,0.55 -0.1411,1 0.4415,1 0.5824,0 1.0585,-0.45 1.0585,-1 0,-0.55 -0.1988,-1 -0.4414,-1 z m -78.5,2 c -0.5824,0 -1.0586,0.45 -1.0586,1 0,0.55 0.1987,1 0.4415,1 0.2425,0 0.7186,-0.45 1.0585,-1 0.3399,-0.55 0.1411,-1 -0.4414,-1 z m 3.7149,5.06055 c -0.5077,0 -0.7735,0.31299 -0.7735,0.93945 0,0.55 1.0125,0.99237 2.25,0.98437 1.8194,-0.0124 1.963,-0.2005 0.75,-0.98437 -0.9694,-0.62646 -1.7189,-0.93945 -2.2265,-0.93945 z m 93.2265,0.93945 c -0.55,0 -1,0.45 -1,1 0,0.55 0.45,1 1,1 0.55,0 1,-0.45 1,-1 0,-0.55 -0.45,-1 -1,-1 z m -51.3789,1.38867 c -0.3644,0.0123 -0.6211,0.40964 -0.6211,1.05274 0,1.75652 0.5999,2.01399 1.4571,0.62695 0.3164,-0.512 0.1176,-1.21314 -0.4414,-1.5586 -0.1398,-0.0864 -0.2731,-0.12518 -0.3946,-0.12109 z m 52.5801,3.98047 c -0.3198,0.0239 -0.6012,0.51099 -1.1211,1.48242 -0.5937,1.10926 -1.0801,2.58704 -1.0801,3.2832 0,0.93548 0.2919,0.97173 1.1211,0.14258 0.617,-0.61701 1.742,-0.88265 2.5,-0.59179 1.7492,0.67113 1.7119,-0.65489 -0.074,-3.01758 -0.6689,-0.88268 -1.0258,-1.32271 -1.3457,-1.29883 z m 15.8613,3.60742 c -0.2097,-0.0202 -0.4383,0.0653 -0.6621,0.28906 -0.3301,0.33008 -0.249,1.17214 0.1817,1.86914 0.6301,1.01938 0.8663,1.0181 1.2051,0.004 0.3624,-1.08761 -0.095,-2.1015 -0.7247,-2.16211 z m -54.6523,10.30078 c -0.306,0.0143 -0.4102,0.55599 -0.4102,1.72266 0,1.86667 0.266,2.13255 1.1993,1.19922 0.9333,-0.93333 0.9333,-1.46706 0,-2.40039 -0.35,-0.35 -0.6055,-0.53008 -0.7891,-0.52149 z m 21.5898,1.72266 c -0.55,0 -1,0.9 -1,2 0,1.1 0.45,2 1,2 0.55,0 1,-0.9 1,-2 0,-1.1 -0.45,-2 -1,-2 z m -14,2 c -0.55,0 -1,0.70113 -1,1.55859 0,0.85748 0.45,1.28133 1,0.94141 0.55,-0.33992 1,-1.04107 1,-1.55859 0,-0.51754 -0.45,-0.94141 -1,-0.94141 z" />
  <path
     style="fill:#aa0000;stroke:#aa0000;stroke-width:1.25388122"
     d="m 1074.1754,354.37152 c 31.8801,-30.02843 55.0654,-49.84423 85.8909,-73.40837 24.5838,-18.7928 29.4119,-22.24181 30.13,-21.52374 0.2857,0.28569 -1.4897,3.5028 -3.9452,7.14912 -13.8225,20.52514 -13.7423,33.03991 0.2578,40.25251 5.3561,2.75935 7.9844,3.18682 21.95,3.57001 25.4852,0.69927 59.434,-5.63455 89.714,-16.7379 17.5509,-6.43573 47.9102,-21.59932 61.8874,-30.91103 14.534,-9.68261 31.561,-26.07705 35.0338,-33.7324 4.23,-9.32437 3.1043,-19.69306 -2.8298,-26.06649 -4.8737,-5.23446 -9.6253,-6.89481 -19.6651,-6.87168 -11.5763,0.0267 -21.6677,2.58511 -38.7434,9.82237 -7.2295,3.06417 -13.3484,5.36749 -13.5974,5.11851 -0.249,-0.249 14.3881,-13.41615 32.5269,-29.26035 18.1388,-15.8442 34.1081,-30.09004 35.4874,-31.65744 l 2.5077,-2.8498 -3.1347,0.96175 c -1.7241,0.52896 -19.1527,7.10874 -38.7304,14.62172 -19.5776,7.51298 -35.8174,13.43817 -36.0885,13.16708 -0.4279,-0.42789 29.9753,-26.64028 87.9744,-75.84802 8.9596,-7.601527 16.5095,-13.601668 16.7775,-13.333647 0.2681,0.268021 -4.26,5.727019 -10.0623,12.131109 -14.4269,15.923178 -18.6168,20.937008 -18.6168,22.277828 0,0.62847 2.6802,0.37428 5.9559,-0.56487 3.2758,-0.93915 28.4342,-8.28852 55.9077,-16.33193 27.4734,-8.043408 50.1866,-14.389418 50.4738,-14.102244 0.2872,0.287175 -23.1062,17.251174 -51.9852,37.697784 -28.879,20.44661 -53.8493,38.3455 -55.4894,39.77531 l -2.982,2.59966 3.7617,-0.54213 c 2.0689,-0.29817 9.122,-1.5157 15.6735,-2.70564 18.0467,-3.27775 31.2341,-1.07927 39.1802,6.53173 3.8296,3.66812 7.7969,13.16127 9.0666,21.69455 1.0732,7.21361 -1.7814,20.91082 -6.5413,31.38677 -4.1066,9.03797 -22.0243,36.01047 -25.6046,38.54395 -2.7683,1.95892 -5.9254,7.834 -5.2365,9.74472 0.2692,0.74643 -0.5136,1.31067 -1.7394,1.25389 -1.2257,-0.0568 -2.3583,0.32584 -2.5167,0.85029 -0.1585,0.52445 -1.1604,2.64037 -2.2265,4.70205 -1.9918,3.85166 -3.9644,5.22924 -2.6745,1.86769 1.1717,-3.05324 -1.045,-2.1589 -4.6347,1.86996 -3.6989,4.15134 -4.355,7.53414 -1.4612,7.53414 1.3136,0 1.8808,1.32355 1.8808,4.38859 0,3.06504 0.5673,4.38858 1.8808,4.38858 3.1083,0 2.1373,2.91676 -2.3386,7.02453 -2.3207,2.12986 -4.5347,4.66506 -4.92,5.63378 -0.5977,1.50258 -0.8848,1.49687 -1.9544,-0.0389 -1.0538,-1.51305 -1.5775,-1.53152 -3.2833,-0.11586 -1.5373,1.2758 -2.3817,1.33227 -3.4811,0.23285 -2.063,-2.06298 -6.6955,-1.79621 -9.0106,0.51887 -1.0837,1.0837 -1.9704,1.47367 -1.9704,0.86659 0,-0.60709 -0.7375,-2.11233 -1.6388,-3.34497 -1.5609,-2.13474 -1.7843,-2.1162 -4.702,0.39031 -5.8367,5.01397 -39.4271,31.22534 -39.6934,30.97363 -0.1471,-0.13908 0.5582,-2.99639 1.5674,-6.34958 8.0161,-26.63556 -12.021,-35.58959 -54.5898,-24.39463 -21.5781,5.67472 -58.5157,22.27736 -84.5496,38.00316 -7.538,4.55331 -13.8066,8.27873 -13.9303,8.27873 -0.1237,0 -0.2027,-6.20358 -0.1757,-13.78574 0.045,-12.6282 -0.1889,-14.0392 -2.7868,-16.8045 -5.4459,-5.79684 -17.7555,-7.1319 -35.217,-3.8195 -19.6305,3.72385 -44.9795,15.11111 -69.5349,31.23652 -6.8583,4.50381 -12.7829,8.1642 -13.1658,8.1342 -0.3828,-0.03 4.1,-4.57208 9.9619,-10.09351 z"
     id="path213"
     inkscape:connector-curvature="0" />
  <path
     style="fill:#aa0000;stroke:#aa0000;stroke-width:0.44331396"
     d="m 1406.6902,314.28111 c -0.037,-1.46293 -0.086,-2.90925 -0.1108,-3.21402 -0.032,-0.39476 0.8482,-0.55415 3.0589,-0.55415 h 3.1032 l -0.039,1.89582 c -0.054,2.61323 -1.8557,4.53224 -4.2553,4.53224 h -1.6903 z"
     id="path215"
     inkscape:connector-curvature="0" />
  <path
     style="fill:#aa0000;stroke:#aa0000;stroke-width:0.11082849"
     d="m 1183.1475,361.47742 c 0.1031,-0.34672 1.065,-5.80984 1.0857,-6.1656 0.011,-0.19006 0.048,0.709 0.083,1.99792 0.057,2.13195 0.083,2.36545 0.2832,2.58674 0.1836,0.20284 0.2941,0.23144 0.665,0.17218 0.2746,-0.0439 0.4024,-0.0318 0.334,0.0314 -0.1577,0.14572 -2.3811,1.5713 -2.4508,1.5713 -0.032,0 -0.032,-0.0873 -2e-4,-0.19395 z"
     id="path221"
     inkscape:connector-curvature="0" />
  <path
     style="fill:#aa0000;stroke:#aa0000;stroke-width:0.11082849"
     d="m 1057.2037,370.78714 c 0,-0.22616 1.4394,-1.81345 3.8443,-4.23931 2.1923,-2.21129 2.5721,-2.55184 2.5159,-2.25582 -0.05,0.26541 -0.01,0.40432 0.1671,0.58185 0.4332,0.4332 0.7939,0.30306 3.2604,-1.17637 0.6592,-0.39539 1.2215,-0.69591 1.2496,-0.66783 0.028,0.0281 -1.409,1.08383 -3.1935,2.3461 -1.7844,1.26227 -4.1241,2.92762 -5.1992,3.70076 -2.0925,1.50485 -2.6446,1.86196 -2.6446,1.71062 z"
     id="path225"
     inkscape:connector-curvature="0" />
  <path
     style="fill:#aa0000;stroke:#aa0000;stroke-width:0.11082849"
     d=""
     id="path227"
     inkscape:connector-curvature="0" />
  <path
     style="fill:#aa0000;stroke:#aa0000;stroke-width:0.11082849"
     d="m 1189.8654,262.12898 c 0,-0.0345 0.2244,-0.53651 0.4987,-1.11556 0.5921,-1.24986 0.6401,-1.73113 0.2067,-2.07201 -0.3689,-0.29018 -0.8744,-0.2919 -1.5431,-0.005 -0.288,0.12344 -0.543,0.20512 -0.5666,0.1815 -0.059,-0.0585 4.4892,-3.04305 5.4215,-3.55807 0.4112,-0.22719 0.8023,-0.39489 0.869,-0.37266 0.067,0.0222 -0.4164,0.787 -1.0735,1.69948 -0.6571,0.91249 -1.7417,2.43209 -2.4102,3.37691 -1.2617,1.78322 -1.4025,1.97055 -1.4025,1.86567 z"
     id="path229"
     inkscape:connector-curvature="0" />
  <path
     style="fill:#aa0000;stroke:#aa0000;stroke-width:0.05541424"
     d=""
     id="path231"
     inkscape:connector-curvature="0" />
  <path
     style="fill:#aa0000;stroke:#aa0000;stroke-width:0.05541424"
     d="m 1428.9224,264.34734 c -0.1653,-0.0945 -0.3808,-0.10414 -0.5859,-0.0262 -0.082,0.0313 -0.158,0.0488 -0.168,0.0388 -0.01,-0.01 0.1637,-0.22889 0.3861,-0.48643 0.5957,-0.69016 1.6694,-2.04213 2.607,-3.28275 0.4544,-0.60123 0.8357,-1.08354 0.8475,-1.0718 0.012,0.0118 -0.2125,0.37977 -0.4982,0.81783 -1.0539,1.61569 -1.757,2.90808 -1.7576,3.23069 0,0.64938 -0.4016,1.02521 -0.8309,0.77982 z"
     id="path233"
     inkscape:connector-curvature="0" />
  <path
     style="fill:#aa0000;stroke:#aa0000;stroke-width:0.05541424"
     d="m 1425.1512,280.16468 c -1.5303,-0.22525 -2.513,-0.63809 -3.7662,-1.58212 -0.5031,-0.37896 -1.5323,-1.38744 -1.6606,-1.62707 -0.055,-0.10348 -0.044,-0.11229 0.1497,-0.1129 0.4342,-10e-4 1.0415,-0.23167 1.3948,-0.52897 0.2183,-0.18364 0.4297,-0.54219 0.4791,-0.81256 l 0.038,-0.2062 0.1726,0.17255 c 0.1883,0.18833 0.4606,0.32228 0.659,0.32419 0.5677,0.005 1.6564,1.12904 2.7515,2.83971 0.9468,1.47899 0.9154,1.70017 -0.2176,1.53337 z"
     id="path235"
     inkscape:connector-curvature="0" />
  <path
     style="fill:#aa0000;stroke:#aa0000;stroke-width:0.05541424"
     d="m 1411.7601,286.85937 c -0.1186,-0.12972 -0.2541,-0.37591 -0.3138,-0.56997 -0.032,-0.10363 -0.011,-0.11281 0.2588,-0.11281 0.2178,0 0.3583,-0.038 0.5452,-0.14752 0.258,-0.15122 0.7854,-0.64749 1.0328,-0.97181 0.2458,-0.32222 0.1993,-0.14427 -0.1196,0.45838 -0.6984,1.31951 -1.0861,1.69071 -1.4034,1.34373 z"
     id="path237"
     inkscape:connector-curvature="0" />
  <path
     style="fill:#aa0000;stroke:#aa0000;stroke-width:0.05541424"
     d="m 1416.4093,279.63521 c 0.073,-0.2608 0.801,-1.73909 0.8568,-1.73909 0.039,0 0.098,0.0508 0.1313,0.11296 0.079,0.14757 -0.1077,0.56142 -0.4616,1.02303 -0.3316,0.43262 -0.5481,0.68068 -0.5265,0.6031 z"
     id="path239"
     inkscape:connector-curvature="0" />
  <path
     style="fill:#aa0000;stroke:#aa0000;stroke-width:0.05541424"
     d="m 1405.7803,288.54951 c 0.1913,-0.3678 1.5723,-2.20719 1.6207,-2.15874 0.033,0.0332 -0.4086,1.07209 -0.5537,1.30184 -0.2206,0.34942 -0.5287,0.67447 -0.808,0.85235 -0.308,0.19624 -0.3592,0.19714 -0.259,0.005 z"
     id="path243"
     inkscape:connector-curvature="0" />
  <path
     style="fill:#aa0000;stroke:#aa0000;stroke-width:0.05541424"
     d="m 1408.1557,294.93304 c -0.1431,-0.74375 -0.3693,-1.32254 -0.6732,-1.72287 l -0.2165,-0.28505 0.1679,-0.0336 c 0.092,-0.0185 0.2986,-0.0336 0.4583,-0.0336 0.3497,0 0.543,0.12854 0.6413,0.42633 0.091,0.27561 0.033,1.06549 -0.1278,1.7475 l -0.1273,0.53912 z"
     id="path245"
     inkscape:connector-curvature="0" />
  <path
     style="fill:#aa0000;stroke:#aa0000;stroke-width:0.05541424"
     d="m 1410.5269,297.72464 c -0.1055,-0.0302 -0.2593,-0.10289 -0.3416,-0.1615 -0.1874,-0.13346 -0.3808,-0.52489 -0.3808,-0.77076 0,-0.24511 0.1932,-0.63717 0.3793,-0.76969 0.4965,-0.35353 1.1818,-0.19819 1.4506,0.32883 0.3759,0.73677 -0.3193,1.59871 -1.1075,1.37312 z"
     id="path247"
     inkscape:connector-curvature="0" />
  <path
     style="fill:#aa0000;stroke:#aa0000;stroke-width:0.05541424"
     d="m 1413.3024,295.54509 c -0.7386,-0.66728 -0.6142,-2.28281 0.2037,-2.64472 0.4149,-0.18359 0.7705,-0.004 1.0523,0.53281 0.133,0.25308 0.1491,0.34391 0.1497,0.84147 5e-4,0.51186 -0.013,0.58471 -0.1667,0.88511 -0.3102,0.60704 -0.8186,0.76516 -1.239,0.38533 z"
     id="path249"
     inkscape:connector-curvature="0" />
  <path
     style="fill:#aa0000;stroke:#aa0000;stroke-width:0.05541424"
     d="m 1415.6346,292.22198 c -0.2384,-0.20061 -0.4176,-0.6528 -0.3865,-0.97564 0.055,-0.57173 0.5071,-1.02134 1.2835,-1.27623 0.4319,-0.14176 0.6448,-0.0907 0.7576,0.18164 0.1283,0.3098 -0.1558,1.10668 -0.6103,1.71149 -0.3832,0.50999 -0.725,0.62741 -1.0443,0.35874 z"
     id="path251"
     inkscape:connector-curvature="0" />
  <path
     style="fill:#aa0000;stroke:#aa0000;stroke-width:0.05541424"
     d="m 1423.8456,289.31627 c -0.4303,-0.19539 -0.762,-0.80043 -0.7622,-1.39017 -10e-5,-0.49284 0.142,-0.88029 0.4476,-1.22023 0.5772,-0.64194 1.1399,-0.66743 1.5944,-0.0722 0.4124,0.54015 0.4633,1.22536 0.1398,1.88255 -0.1968,0.3997 -0.5832,0.75192 -0.9309,0.84848 -0.2551,0.0709 -0.2181,0.0745 -0.4887,-0.0484 z"
     id="path253"
     inkscape:connector-curvature="0" />
  <path
     style="fill:#aa0000;stroke:#aa0000;stroke-width:0.05541424"
     d="m 1409.2912,307.74298 c 1.3046,-1.38091 2.2334,-2.73231 2.5943,-3.77446 0.1431,-0.41326 0.1705,-1.16851 0.055,-1.51612 -0.1245,-0.37494 -0.5076,-0.79312 -0.9057,-0.98858 l -0.316,-0.15518 0.277,-0.0175 c 0.4305,-0.0271 0.6267,0.033 0.8854,0.27153 0.3503,0.32282 0.4875,0.68123 0.5171,1.35018 0.037,0.84648 -0.1664,1.71598 -0.6113,2.60722 -0.5256,1.05276 -1.4323,2.07756 -2.1487,2.42852 -0.2286,0.11197 -0.5029,0.22022 -0.6096,0.24055 -0.1925,0.0367 -0.1906,0.0334 0.2625,-0.44621 z"
     id="path255"
     inkscape:connector-curvature="0" />
  <path
     style="fill:#aa0000;stroke:#aa0000;stroke-width:0.05541424"
     d="m 1406.5671,317.00472 c -0.014,-0.0686 -0.041,-0.92264 -0.059,-1.89793 -0.018,-0.9753 -0.057,-2.30939 -0.087,-2.96467 -0.06,-1.3383 -0.053,-1.36832 0.3389,-1.56291 0.3801,-0.18856 0.8269,-0.21999 3.5309,-0.24835 l 2.6755,-0.0281 -0.03,0.98893 c -0.048,1.55954 -0.075,1.85196 -0.218,2.41756 -0.37,1.4587 -1.3308,2.59655 -2.6386,3.12478 -0.6032,0.24363 -0.9887,0.29335 -2.2828,0.29438 l -1.2042,9.6e-4 z"
     id="path257"
     inkscape:connector-curvature="0" />
  <path
     style="fill:#aa0000;stroke:#aa0000;stroke-width:0.05541424"
     d="m 1406.3249,311.77185 c -0.019,-0.10828 -0.3486,-0.31289 -0.5591,-0.34711 l -0.197,-0.032 0.7649,-0.7561 0.7649,-0.7561 0.2585,0.11521 c 0.3722,0.16586 1.2159,0.19139 2.1703,0.0657 0.9652,-0.12711 1.9622,-0.12978 2.4297,-0.007 0.6924,0.18259 0.592,0.19971 -1.1828,0.20165 -1.9516,0.002 -3.3578,0.0753 -3.7784,0.19666 -0.158,0.0456 -0.3628,0.14643 -0.4551,0.22412 -0.1613,0.13571 -0.1686,0.16133 -0.1862,0.65064 -0.01,0.28016 -0.023,0.4799 -0.03,0.44388 z"
     id="path259"
     inkscape:connector-curvature="0" />
  <path
     style="fill:#aa0000;stroke:#aa0000;stroke-width:0.05541424"
     d="m 1412.6338,314.24659 c 0,-0.0159 0.06,-0.27777 0.1374,-0.58185 0.117,-0.46006 0.148,-0.75051 0.1846,-1.73034 0.024,-0.64761 0.058,-1.19127 0.075,-1.20815 0.017,-0.0169 0.087,0.0855 0.1557,0.22753 0.2445,0.50522 0.205,1.30065 -0.1114,2.24121 -0.1457,0.43332 -0.4336,1.11957 -0.4411,1.0516 z"
     id="path261"
     inkscape:connector-curvature="0" />
  <path
     style="fill:#aa0000;stroke:#aa0000;stroke-width:0.05541424"
     d="m 1404.2883,314.61058 c -0.2725,-0.27248 -0.1305,-0.72044 0.4183,-1.31935 0.1805,-0.19701 0.4076,-0.39106 0.5046,-0.43123 0.1651,-0.0684 0.1842,-0.0638 0.3015,0.0726 0.1219,0.14168 0.2466,0.57091 0.2466,0.84878 0,0.17044 -0.1387,0.51043 -0.2654,0.65048 -0.2955,0.32677 -0.9592,0.42517 -1.2056,0.17875 z"
     id="path263"
     inkscape:connector-curvature="0" />
  <path
     style="fill:#aa0000;stroke:#aa0000;stroke-width:0.05541424"
     d="m 1402.6284,317.72662 c -0.9061,-0.11466 -1.8327,-0.96051 -2.1095,-1.92581 -0.038,-0.13308 -0.033,-0.13184 0.1638,0.0412 0.5576,0.48959 1.0996,0.52587 1.5397,0.10308 l 0.1482,-0.1424 -0.031,0.30197 c -0.039,0.37648 0.037,0.42211 0.4249,0.25528 0.5139,-0.22108 1.041,-0.10482 1.3779,0.30389 0.4201,0.50964 0.066,0.97413 -0.8122,1.06615 -0.2031,0.0213 -0.5189,0.0197 -0.7017,-0.003 z"
     id="path265"
     inkscape:connector-curvature="0" />
  <path
     style="fill:#aa0000;stroke:#aa0000;stroke-width:0.05541424"
     d="m 1396.4497,315.57398 c 0.1676,-0.0984 0.4877,-0.31858 0.7113,-0.4893 0.6873,-0.52484 0.6333,-0.5018 0.5883,-0.25074 -0.087,0.4887 -0.5889,0.84946 -1.2431,0.89423 l -0.3613,0.0247 z"
     id="path267"
     inkscape:connector-curvature="0" />
  <path
     style="fill:#aa0000;stroke:#aa0000;stroke-width:0.05541424"
     d="m 1394.3644,317.11721 c -0.2274,-0.24218 -0.4459,-0.57681 -0.7699,-1.17921 -0.1476,-0.2743 -0.3261,-0.59175 -0.3967,-0.70543 -0.071,-0.11369 -0.1284,-0.22022 -0.1284,-0.23673 0,-0.0165 0.1683,0.10902 0.374,0.27897 0.5586,0.46143 0.9763,0.64857 1.5174,0.6799 l 0.4435,0.0257 -0.1936,0.15953 c -0.2709,0.22328 -0.4148,0.47956 -0.4649,0.82791 -0.053,0.36439 -0.1453,0.40076 -0.3814,0.14939 z"
     id="path269"
     inkscape:connector-curvature="0" />
  <path
     style="fill:#aa0000;stroke:#aa0000;stroke-width:0.05541424"
     d=""
     id="path271"
     inkscape:connector-curvature="0" />
  <path
     style="fill:#aa0000;stroke:#aa0000;stroke-width:0.05541424"
     d="m 1382.1191,318.75771 c 0.148,-0.82481 0.1475,-1.38152 0,-2.12703 l -0.039,-0.19395 0.2045,0.17929 c 0.1125,0.0986 0.2677,0.19517 0.345,0.21457 0.2595,0.0651 0.6844,-0.0145 1.022,-0.19143 0.1824,-0.0956 0.3317,-0.15964 0.3317,-0.14223 0,0.0716 -1.1404,1.70641 -1.4313,2.05192 -0.3891,0.46208 -0.4849,0.50847 -0.4311,0.20886 z"
     id="path273"
     inkscape:connector-curvature="0" />
  <path
     style="fill:#aa0000;stroke:#aa0000;stroke-width:0.05541424"
     d="m 1374.0643,315.67022 c 0.045,-0.0406 0.5051,-0.42002 1.0232,-0.84313 0.5181,-0.4231 1.2724,-1.05148 1.6763,-1.39639 0.4038,-0.34491 0.7339,-0.60762 0.7336,-0.5838 -3e-4,0.0238 -0.038,0.16573 -0.083,0.31534 -0.1283,0.42299 -0.1053,1.07024 0.06,1.6756 0.078,0.287 0.1343,0.57714 0.1247,0.64475 -0.016,0.11316 -0.033,0.10536 -0.2114,-0.0982 -0.6229,-0.70994 -0.7538,-0.76933 -1.364,-0.61874 -0.3728,0.092 -1.1601,0.46471 -1.6683,0.78978 -0.3025,0.19355 -0.4345,0.24563 -0.2906,0.11474 z"
     id="path275"
     inkscape:connector-curvature="0" />
  <path
     style="fill:#aa0000;stroke:#aa0000;stroke-width:0.05541424"
     d="m 1372.0716,324.57539 c -0.1438,-0.18279 -0.2106,-0.43283 -0.2575,-0.96392 -0.091,-1.02807 0.3165,-1.61435 0.9072,-1.30578 0.5088,0.26584 0.7669,0.9561 0.5373,1.43734 -0.219,0.45916 -0.7356,0.97813 -0.9737,0.97813 -0.054,0 -0.1502,-0.0656 -0.2133,-0.14577 z"
     id="path277"
     inkscape:connector-curvature="0" />
  <path
     style="fill:#aa0000;stroke:#aa0000;stroke-width:0.05541424"
     d="m 1422.9039,331.50793 c -0.1351,-0.20618 -0.078,-1.06551 0.1138,-1.71637 0.3345,-1.13418 1.1519,-2.82821 1.6115,-3.33981 0.256,-0.28497 0.4208,-0.31618 0.6832,-0.12937 0.3464,0.24671 1.6248,1.97406 1.9807,2.67637 0.3192,0.62988 0.4338,1.17892 0.2987,1.43129 -0.1234,0.23068 -0.5506,0.24338 -1.1425,0.034 -0.3925,-0.1389 -0.7908,-0.16128 -1.2301,-0.0691 -0.5824,0.12217 -0.9175,0.29569 -1.4337,0.74226 -0.6536,0.56545 -0.7323,0.59855 -0.8816,0.37078 z"
     id="path279"
     inkscape:connector-curvature="0" />
  <path
     style="fill:#aa0000;stroke:#aa0000;stroke-width:0.05541424"
     d="m 1423.4064,322.68053 c -0.2509,-0.11737 -0.5066,-0.39144 -0.5586,-0.59883 -0.019,-0.0755 -0.023,-0.25954 -0.01,-0.409 0.048,-0.49479 0.4334,-0.83054 0.9545,-0.83054 0.4276,0 0.7753,0.26331 0.9178,0.69488 0.2426,0.73528 -0.6,1.47344 -1.3053,1.14349 z"
     id="path281"
     inkscape:connector-curvature="0" />
  <path
     style="fill:#aa0000;stroke:#aa0000;stroke-width:0.05541424"
     d="m 1407.4934,345.66983 c -0.828,-0.50483 -0.9145,-2.88453 -0.1316,-3.61787 0.4063,-0.38062 0.8101,-0.22924 1.1164,0.41862 0.4939,1.04424 0.2645,2.7468 -0.432,3.20603 -0.1966,0.12966 -0.3318,0.128 -0.5528,-0.007 z"
     id="path283"
     inkscape:connector-curvature="0" />
  <path
     style="fill:#aa0000;stroke:#aa0000;stroke-width:0.05541424"
     d="m 1393.1899,346.31865 c -0.3204,-0.15417 -0.4748,-0.8724 -0.3188,-1.48297 0.1779,-0.6965 0.512,-1.01851 1.018,-0.98109 0.3276,0.0242 0.5227,0.14107 0.7229,0.43289 0.3322,0.48411 -0.087,1.47971 -0.8171,1.94306 -0.2648,0.16793 -0.3986,0.18741 -0.605,0.0881 z"
     id="path285"
     inkscape:connector-curvature="0" />
  <path
     style="fill:#aa0000;stroke:#aa0000;stroke-width:0.05541424"
     d="m 1386.0401,343.39191 c -0.1777,-0.19073 -0.2468,-0.77924 -0.2173,-1.84888 0.037,-1.33444 0.1591,-1.58956 0.6412,-1.33891 0.2236,0.11624 0.9201,0.85845 1.056,1.12525 0.2431,0.47727 0.098,0.94919 -0.4722,1.54049 -0.5457,0.56546 -0.83,0.71276 -1.0077,0.52205 z"
     id="path287"
     inkscape:connector-curvature="0" />
  <path
     style="fill:#aa0000;stroke:#aa0000;stroke-width:0.05541424"
     d="m 1440.8,332.4653 c -0.4484,-0.47761 -0.7302,-1.07511 -0.7785,-1.65057 -0.036,-0.42614 0.045,-0.63307 0.3353,-0.85406 0.3958,-0.30194 0.863,-0.13816 1.1244,0.3942 0.1372,0.27926 0.1587,0.3875 0.1583,0.79434 -8e-4,0.70678 -0.3039,1.49618 -0.5745,1.49618 -0.053,0 -0.172,-0.081 -0.265,-0.18009 z"
     id="path289"
     inkscape:connector-curvature="0" />
  <path
     style="fill:#aa0000;stroke:#aa0000;stroke-width:0.05541424"
     d="m 1437.4553,304.66932 c -0.4223,-0.22464 -0.7105,-0.94005 -0.6383,-1.58428 0.145,-1.2944 1.2161,-1.70046 1.7289,-0.65542 0.2994,0.61035 0.225,1.54933 -0.1574,1.9848 -0.3165,0.36058 -0.5927,0.43601 -0.9332,0.2549 z"
     id="path291"
     inkscape:connector-curvature="0" />
  <path
     style="fill:#aa0000;stroke:#aa0000;stroke-width:0.07836758"
     d="m 1331.298,321.68794 c -0.5304,-0.0826 -1.0695,-0.30532 -1.3021,-0.53788 -0.2601,-0.2601 -0.2255,-0.7428 0.075,-1.04311 0.2228,-0.2228 0.2679,-0.23619 0.6466,-0.19235 0.4896,0.0567 1.6264,0.60043 2.3148,1.10718 0.5102,0.37562 0.5952,0.5466 0.3061,0.6158 -0.3662,0.0876 -1.6046,0.11822 -2.0402,0.0504 z"
     id="path293"
     inkscape:connector-curvature="0" />
  <path
     style="fill:#aa0000;stroke:#aa0000;stroke-width:0.07836758"
     d="m 1326.0293,316.59563 c -0.2019,-0.22314 -0.2495,-0.91962 -0.084,-1.23853 0.2058,-0.39799 0.7395,-0.59829 1.2026,-0.45132 0.4276,0.13574 0.2487,0.81821 -0.3852,1.46898 -0.4083,0.41926 -0.5222,0.45359 -0.7329,0.22087 z"
     id="path295"
     inkscape:connector-curvature="0" />
  <path
     style="fill:#aa0000;stroke:#aa0000;stroke-width:0.07836758"
     d="m 1334.1415,346.64111 c 0,-0.0969 2.3797,-5.9045 2.4078,-5.87634 0.014,0.0137 -0.1005,0.53257 -0.254,1.15303 -0.5376,2.17439 -0.4669,2.58493 0.4602,2.67396 0.201,0.0193 0.1132,0.10272 -0.8621,0.81916 -0.5972,0.43872 -1.2357,0.90904 -1.4189,1.04515 -0.1831,0.13611 -0.333,0.21938 -0.333,0.18504 z"
     id="path297"
     inkscape:connector-curvature="0" />
  <path
     style="fill:#aa0000;stroke:#aa0000;stroke-width:0.07836758"
     d="m 1433.2243,265.55038 c -0.5125,-0.43127 -0.5375,-1.03475 -0.06,-1.45383 0.9342,-0.82026 2.1554,0.55284 1.249,1.40436 -0.1262,0.11857 -0.3196,0.19187 -0.5695,0.21588 -0.3228,0.031 -0.4137,0.007 -0.6193,-0.16641 z"
     id="path299"
     inkscape:connector-curvature="0" />
  <path
     style="fill:#aa0000;stroke:#aa0000;stroke-width:0.07836758"
     d="m 1454.0637,256.46038 c -0.3259,-0.37119 -0.7401,-1.39763 -0.71,-1.75951 0.022,-0.26723 0.044,-0.29064 0.2983,-0.31477 0.42,-0.0399 0.8427,0.12251 1.2173,0.46785 0.4464,0.41143 0.5024,0.67209 0.2406,1.11882 -0.1922,0.32804 -0.615,0.75124 -0.7505,0.75124 -0.035,0 -0.1684,-0.11863 -0.2957,-0.26363 z"
     id="path301"
     inkscape:connector-curvature="0" />
  <path
     style="fill:#aa0000;stroke:#aa0000;stroke-width:0.07836758"
     d="m 1473.4398,244.62926 c -1.0633,-0.35364 -1.5306,-0.99586 -1.5909,-2.1868 -0.054,-1.06302 0.2284,-1.89167 0.8675,-2.54749 0.4576,-0.46942 0.8706,-0.60902 1.7814,-0.60204 1.2474,0.01 2.5223,0.54568 3.4619,1.45585 1.1971,1.15947 0.988,2.28522 -0.6015,3.23837 -0.7797,0.46761 -1.5756,0.68158 -2.6645,0.71634 -0.6466,0.0206 -1.0383,-0.003 -1.2539,-0.0742 z"
     id="path303"
     inkscape:connector-curvature="0" />
  <path
     style="fill:#aa0000;stroke:#aa0000;stroke-width:0.07836758"
     d="m 1463.8702,237.36685 c -0.216,-0.0848 -0.4691,-0.41131 -0.5806,-0.74902 -0.1741,-0.52774 0.1958,-1.16637 0.8453,-1.45929 0.4639,-0.20923 0.9033,-0.21441 1.1719,-0.0138 0.5851,0.43681 0.3123,1.31493 -0.6254,2.01294 -0.3025,0.22519 -0.5848,0.298 -0.8112,0.20918 z"
     id="path305"
     inkscape:connector-curvature="0" />
  <path
     style="fill:#aa0000;stroke:#aa0000;stroke-width:0.07836758"
     d=""
     id="path307"
     inkscape:connector-curvature="0" />
  <path
     style="fill:#aa0000;stroke:#aa0000;stroke-width:0.07836758"
     d="m 1437.5893,251.60951 c 0,-0.0329 0.6617,-1.05558 1.4738,-2.27266 5.0304,-7.53988 10.3674,-16.23823 12.1936,-19.87319 0.1592,-0.31691 0.3088,-0.55689 0.3324,-0.53328 0.049,0.0488 -1.8214,3.72905 -2.794,5.49806 -2.757,5.01425 -5.9621,10.03706 -9.7958,15.35124 -1.1474,1.59039 -1.4058,1.9258 -1.41,1.82983 z"
     id="path309"
     inkscape:connector-curvature="0" />
  <path
     style="fill:#aa0000;stroke:#aa0000;stroke-width:0.02770712"
     d="m 1451.5981,228.89847 c -0.028,-0.018 0.027,-0.14991 0.2388,-0.57449 1.0861,-2.17232 2.3033,-5.14576 3.3276,-8.1291 1.5687,-4.5688 2.7986,-9.46313 3.4918,-13.89512 0.062,-0.39621 0.1195,-0.76091 0.128,-0.81043 0.011,-0.0656 0.03,-0.09 0.07,-0.09 0.067,0 0.068,0.0429 0.012,0.48603 -0.8221,6.43926 -2.798,13.18704 -5.9344,20.2666 -0.5294,1.195 -1.2636,2.77198 -1.2898,2.77029 0,-2.2e-4 -0.023,-0.0109 -0.043,-0.0237 z"
     id="path311"
     inkscape:connector-curvature="0" />
  <path
     style="fill:#aa0000;stroke:#aa0000;stroke-width:0.02770712"
     d="m 1458.7972,205.38451 c 0,-5e-4 0.037,-0.27535 0.082,-0.61078 0.079,-0.58704 0.1798,-1.45476 0.2635,-2.26984 l 0.04,-0.3879 -0.013,0.37404 c -0.019,0.53422 -0.102,1.55699 -0.2093,2.58046 -0.033,0.31106 -0.036,0.3222 -0.098,0.31863 -0.035,-0.002 -0.064,-0.004 -0.064,-0.005 z"
     id="path313"
     inkscape:connector-curvature="0" />
  <path
     style="fill:#aa0000;stroke:#aa0000;stroke-width:0.02770712"
     d="m 1458.7195,193.05576 c -0.071,-0.3823 -0.317,-1.50779 -0.4665,-2.13345 -1.475,-6.17397 -4.1109,-12.33529 -6.8201,-15.94197 -0.6833,-0.9097 -1.5409,-1.82736 -2.4253,-2.59517 -4.0177,-3.48837 -8.9975,-5.68741 -15.3059,-6.7591 -0.3926,-0.0667 -0.6576,-0.12199 -0.589,-0.12291 0.2309,-0.003 1.7503,0.25742 2.7568,0.47269 2.3826,0.50957 4.9521,1.36969 7.1842,2.40488 2.3459,1.08799 4.442,2.45765 6.2074,4.05616 0.4773,0.43218 1.4156,1.38854 1.826,1.86114 3.0396,3.5004 5.1894,8.07162 6.7507,14.35439 0.4099,1.64941 0.9565,4.32746 0.9262,4.53789 0,0.0327 -0.025,-0.0279 -0.044,-0.13455 z"
     id="path315"
     inkscape:connector-curvature="0" />
  <path
     style="fill:#aa0000;stroke:#aa0000;stroke-width:0.05541424"
     d=""
     id="path317"
     inkscape:connector-curvature="0" />
  <path
     style="fill:#aa0000;stroke:#aa0000;stroke-width:0.01959189"
     d="m 1401.7691,167.8586 c 7.8804,-1.9822 16.5274,-3.03547 23.9554,-2.91792 2.4451,0.0387 4.5308,0.17633 6.5393,0.43155 0.3395,0.0431 0.6635,0.0836 0.7201,0.09 0.068,0.008 0.1028,0.0206 0.1028,0.0383 0,0.0146 0,0.0266 -0.01,0.0266 0,0 -0.1564,-0.0215 -0.3379,-0.0478 -5.719,-0.82788 -12.4244,-0.65691 -19.9121,0.50769 -0.8866,0.1379 -1.9772,0.32334 -3.1739,0.53968 -2.001,0.36176 -2.6261,0.47365 -4.7118,0.8434 -2.0815,0.369 -3.7886,0.66485 -3.8249,0.66286 -0.019,-0.001 0.2738,-0.0795 0.651,-0.17439 z"
     id="path319"
     inkscape:connector-curvature="0" />
  <path
     style="fill:#aa0000;stroke:#aa0000;stroke-width:0.03918379"
     d="m 1404.5217,96.153264 c 0,-0.02398 7.7402,-6.573706 21.898,-18.529903 1.8825,-1.589801 3.4294,-2.883877 3.4376,-2.875723 0.01,0.0082 -1.4773,1.679987 -3.301,3.715185 -7.3675,8.221978 -10.407,11.598922 -10.4243,11.581635 -0.01,-0.01 0.1563,-0.2357 0.3695,-0.501555 0.8351,-1.041322 1.3843,-1.804473 1.586,-2.203957 0.2283,-0.452156 0.1383,-0.848204 -0.2389,-1.05167 -0.1098,-0.05927 -0.2483,-0.107337 -0.3078,-0.106825 -0.3298,0.0028 -0.9447,0.385512 -2.529,1.573918 -2.0978,1.573505 -6.4659,5.084877 -9.871,7.9349 -0.5371,0.449568 -0.6191,0.511011 -0.6191,0.463995 z"
     id="path321"
     inkscape:connector-curvature="0" />
  <path
     style="fill:#aa0000;stroke:#aa0000;stroke-width:0.11082849"
     d="m 1482.6095,104.94882 c 0.1524,-0.1163 2.4965,-1.82364 5.209,-3.79409 10.3918,-7.548896 13.9208,-10.233037 14.031,-10.672026 0.1007,-0.40127 -0.046,-0.686284 -0.4193,-0.816541 -0.421,-0.146741 -1.5321,0.08869 -5.7609,1.22067 -1.5902,0.425656 -2.937,0.758665 -2.9929,0.740018 -0.056,-0.01865 1.5586,-0.526574 3.588,-1.12873 2.0294,-0.602155 5.1361,-1.539107 6.9038,-2.082115 1.7677,-0.543007 3.4327,-1.017377 3.7,-1.054156 0.997,-0.137185 1.4973,-0.51785 -10.6822,8.126982 -12.1586,8.630008 -13.6572,9.684128 -13.7582,9.677598 -0.052,-0.003 0.029,-0.10131 0.1817,-0.21761 z"
     id="path327"
     inkscape:connector-curvature="0" />
  <path
     style="fill:#aa0000;stroke:#aa0000;stroke-width:0.07836758"
     d="m 1310.5009,217.84761 c 1.8964,-1.73917 23.1384,-20.22311 23.186,-20.17554 0.02,0.0195 -0.9621,0.92946 -2.1813,2.02219 -7.4771,6.70159 -11.3654,10.31532 -11.7362,10.90762 -0.113,0.18052 -0.1228,0.27655 -0.057,0.5637 0.1823,0.79697 0.8109,0.69795 4.6484,-0.73234 0.8239,-0.30708 1.5292,-0.5575 1.5673,-0.55648 0.038,0.001 -1.3413,0.71801 -3.0654,1.5933 -1.7241,0.87529 -4.2808,2.22734 -5.6816,3.00454 -3.9384,2.1851 -6.918,3.78563 -7.0473,3.78563 -0.046,0 0.1196,-0.18568 0.3671,-0.41262 z"
     id="path329"
     inkscape:connector-curvature="0" />
  <path
     style="fill:#aa0000;stroke:#aa0000;stroke-width:0.07836758"
     d=""
     id="path331"
     inkscape:connector-curvature="0" />
  <path
     style="fill:#aa0000;stroke:#aa0000;stroke-width:0.07836758"
     d="m 1307.4698,179.05359 c 3.5848,-3.21237 25.757,-22.27932 25.8266,-22.20966 0.021,0.0205 -1.3665,1.25173 -3.0822,2.73599 -12.7795,11.0551 -17.8779,15.64815 -18.016,16.23046 -0.1192,0.50217 0.39,0.90165 1.0212,0.80122 0.6727,-0.10703 4.4109,-1.39174 10.609,-3.64601 2.0397,-0.74184 3.7242,-1.33314 3.7434,-1.314 0.091,0.0913 -20.019,7.67089 -20.3147,7.6567 -0.037,-0.002 0.058,-0.11641 0.2127,-0.2547 z"
     id="path333"
     inkscape:connector-curvature="0" />
  <path
     style="fill:#ffffff;stroke:none;stroke-width:0.3134703"
     d="m 692.38229,316.40991 c 0.0575,-0.14076 3.84262,-6.34589 8.41145,-13.78919 l 8.30696,-13.53326 3.68852,-0.004 3.68852,-0.004 -2.48081,3.687 c -2.65915,3.95204 -4.0459,6.51519 -3.70784,6.85325 0.30695,0.30696 2.06773,-0.96004 6.65068,-4.78562 4.57545,-3.81932 6.80067,-5.34411 8.21039,-5.62606 1.11485,-0.22297 1.60421,0.28232 0.99009,1.0223 -0.22662,0.27306 -2.14273,1.82783 -4.25804,3.45506 -2.28759,1.75976 -3.91028,3.23603 -4.00461,3.64329 -0.0872,0.37658 -0.86165,4.56388 -1.72092,9.30512 -0.85928,4.74124 -1.63732,8.93782 -1.72899,9.32574 -0.16187,0.68497 -0.27977,0.70531 -4.08892,0.70531 -2.84952,0 -3.96291,-0.10717 -4.07092,-0.39184 -0.0818,-0.21551 0.48233,-2.85792 1.25358,-5.87203 0.77124,-3.01411 1.28659,-5.59586 1.14522,-5.73724 -0.14138,-0.14137 -1.23807,0.79343 -2.4371,2.07733 -2.02923,2.17288 -3.15596,3.72123 -5.46661,7.51222 -1.18964,1.95179 -2.29246,2.41156 -5.78446,2.41156 -1.48538,0 -2.65366,-0.11517 -2.59619,-0.25593 z"
     id="path389"
     inkscape:connector-curvature="0" />
  <path
     style="fill:#ffffff;stroke:none;stroke-width:0.3134703"
     d="m 718.43432,316.43074 c 1.18478,-2.26014 14.25553,-23.17912 15.2738,-24.44485 2.24119,-2.78582 2.56525,-2.94655 5.72648,-2.84021 l 2.72053,0.0915 -6.80963,11.04481 c -10.2454,16.61741 -10.0369,16.38069 -14.42979,16.38267 -1.43255,6.4e-4 -2.54918,-0.10463 -2.48139,-0.23393 z"
     id="path391"
     inkscape:connector-curvature="0" />
  <path
     style="fill:#ffffff;stroke:none;stroke-width:0.3134703"
     d="m 734.11919,316.3967 c -0.89457,-0.11816 -1.70121,-0.28956 -1.79253,-0.38089 -0.18449,-0.18449 10.97795,-18.83286 13.50745,-22.56604 0.88332,-1.30366 2.12461,-2.82559 2.75841,-3.38208 1.12247,-0.98554 1.21881,-1.00943 3.7136,-0.92114 2.16145,0.0765 2.55516,0.17198 2.52229,0.61174 -0.0214,0.2866 -2.96547,5.1997 -6.54231,10.91799 -3.57684,5.71829 -6.38054,10.50657 -6.23045,10.64062 0.1501,0.13404 1.89511,0.41269 3.87781,0.6192 1.9827,0.20651 3.73322,0.50312 3.89005,0.65913 0.42771,0.42548 -1.214,2.71126 -2.39973,3.34118 -0.83418,0.44316 -1.99141,0.55407 -6.34911,0.60853 -2.93095,0.0366 -6.06091,-0.0301 -6.95548,-0.14824 z"
     id="path393"
     inkscape:connector-curvature="0" />
  <path
     style="fill:#ffffff;stroke:none;stroke-width:0.3134703"
     d="m 758.50352,305.65343 c 10.37904,-17.39819 9.73358,-16.65439 14.32427,-16.50675 l 2.81436,0.0905 -2.6871,4.38858 c -5.60193,9.14911 -10.40766,17.18926 -10.40766,17.41234 0,0.44031 1.10801,0.67848 3.91838,0.84224 4.17574,0.24333 4.74004,0.73256 2.8996,2.51382 -1.92976,1.8677 -2.8096,2.05259 -10.50129,2.20673 l -6.97474,0.13977 z"
     id="path395"
     inkscape:connector-curvature="0" />
  <path
     style="fill:#ffffff;stroke:none;stroke-width:0.3134703"
     d="m 773.91069,316.44461 c -0.38792,-0.0747 -0.70531,-0.28642 -0.70531,-0.47045 0,-0.37312 8.84841,-15.30885 12.4282,-20.97825 1.26598,-2.00497 2.86714,-4.15616 3.55813,-4.78042 1.24767,-1.1272 1.2758,-1.13504 4.07667,-1.13504 1.55118,0 2.82033,0.0569 2.82033,0.12654 0,0.29927 -11.55396,19.16353 -13.74017,22.43369 -2.82658,4.22805 -3.83088,5.04392 -6.13318,4.98247 -0.87965,-0.0235 -1.91675,-0.10382 -2.30467,-0.17854 z"
     id="path397"
     inkscape:connector-curvature="0" />
  <path
     style="fill:#ffffff;stroke:none;stroke-width:0.3134703"
     d="m 785.33678,316.274 c 0.13787,-0.21551 1.27164,-1.91908 2.51948,-3.78571 1.24785,-1.86663 4.95673,-7.89701 8.24196,-13.40085 l 5.97314,-10.00699 h 4.33684 c 3.08737,0 4.43037,0.1129 4.66146,0.39184 0.23039,0.2781 -0.077,1.93871 -1.05895,5.72084 -1.60475,6.18091 -2.95054,12.34878 -2.95054,13.52259 0,0.68548 0.0746,0.75512 0.4635,0.4324 0.58212,-0.48312 2.71505,-3.71372 5.53842,-8.38867 4.8138,-7.97072 7.60521,-11.679 8.79137,-11.679 0.47427,0 0.58123,0.1381 0.42489,0.54858 -0.27959,0.73403 -4.03733,7.09672 -10.59883,17.94617 l -5.40302,8.93391 -4.36372,0.0876 c -2.40005,0.0482 -4.48729,-0.036 -4.63831,-0.18704 -0.15715,-0.15714 0.59381,-3.54648 1.75575,-7.92432 2.60033,-9.79719 3.39943,-13.2502 3.27288,-14.14243 -0.11917,-0.84011 -1.06724,0.58351 -7.14207,10.72456 -4.01514,6.70268 -6.51566,10.34688 -7.64008,11.13445 -0.83403,0.58418 -2.54797,0.64076 -2.18417,0.0721 z"
     id="path399"
     inkscape:connector-curvature="0" />
  <path
     style="fill:#ffffff;stroke:none;stroke-width:0.3134703"
     d="m 815.60499,316.46569 c -0.90675,-0.2016 -1.64847,-1.27193 -1.64847,-2.37882 0,-1.06256 2.48271,-5.87811 5.95153,-11.54381 5.51853,-9.01351 8.39257,-12.45353 10.98862,-13.15257 1.4947,-0.40248 15.12433,-0.32535 15.53676,0.0879 0.43815,0.43905 -0.33421,1.91093 -1.2982,2.47392 -1.14232,0.66716 -5.40021,1.19563 -9.706,1.20468 l -3.1347,0.007 -3.50637,5.71682 c -5.42071,8.83795 -7.07673,11.791 -6.88801,12.2828 0.22227,0.57921 2.05486,0.92638 3.36784,0.638 1.36883,-0.30064 3.72006,-2.70841 4.79969,-4.91509 1.16439,-2.37991 1.0288,-2.94084 -0.68447,-2.83178 -1.54326,0.0982 -1.61071,-0.12921 -0.52489,-1.77 1.21967,-1.84304 1.87942,-2.03528 7.44366,-2.169 l 4.94785,-0.1189 -1.63149,2.7706 c -5.83139,9.90282 -7.61946,12.51517 -9.1378,13.35022 -1.71301,0.9421 -4.31118,0.5963 -3.88399,-0.51694 0.2507,-0.65331 -0.0437,-0.63391 -2.38377,0.15703 -1.91236,0.64638 -7.00246,1.06524 -8.60779,0.70833 z"
     id="path401"
     inkscape:connector-curvature="0" />
  <path
     style="fill:#ffffff;stroke:none;stroke-width:0.3134703"
     d="m 904.94127,316.44461 c -0.38792,-0.0747 -0.70531,-0.24042 -0.70531,-0.36824 0,-0.25785 2.55441,-4.64014 10.50126,-18.01574 l 5.329,-8.9694 3.52654,-0.005 c 1.93959,-0.003 3.52654,0.084 3.52654,0.19321 0,0.10923 -0.90541,1.62564 -2.01201,3.36981 -2.48523,3.91708 -3.46821,5.9299 -3.21639,6.58611 0.14233,0.37091 0.61257,0.50347 1.78595,0.50347 2.8585,0 3.91469,-0.93295 6.72523,-5.94051 0.95719,-1.70544 2.17265,-3.46455 2.70101,-3.90914 0.89289,-0.75132 1.18261,-0.80834 4.10736,-0.80834 h 3.1467 l -0.45702,0.70531 c -0.81451,1.25701 -12.92851,21.63421 -14.33207,24.10828 -1.19409,2.10483 -1.4844,2.41477 -2.35726,2.51667 -1.6439,0.19192 -5.80908,-0.10566 -5.80908,-0.41502 0,-0.15849 0.86434,-1.65949 1.92076,-3.33555 1.05641,-1.67606 2.55807,-4.2254 3.33701,-5.66521 1.1516,-2.12862 1.33452,-2.67305 0.97885,-2.91331 -0.72681,-0.49098 -3.82385,-0.14567 -4.76222,0.53098 -0.94631,0.68237 -2.83841,3.37838 -5.10711,7.277 -1.8087,3.10816 -2.92866,4.31741 -4.24185,4.58005 -1.05107,0.21021 -3.432,0.19721 -4.58589,-0.025 z"
     id="path403"
     inkscape:connector-curvature="0" />
  <path
     style="fill:#ffffff;stroke:none;stroke-width:0.3134703"
     d="m 929.18106,316.39153 c -0.2781,-0.44997 1.44181,-2.58144 6.93965,-8.60025 2.86455,-3.13599 7.35463,-8.17039 9.97795,-11.18754 5.39911,-6.20965 5.90944,-6.72366 7.13745,-7.18893 1.36608,-0.5176 6.77754,-0.43782 6.98507,0.10298 0.0923,0.24053 -0.45144,2.39172 -1.20831,4.78042 -0.75687,2.3887 -2.56482,8.3967 -4.01767,13.35111 l -2.64154,9.00801 -4.12098,0.004 -4.12098,0.004 1.40634,-3.46202 c 0.77348,-1.90411 1.33589,-3.6456 1.24979,-3.86998 -0.21661,-0.56446 -4.35135,-0.87716 -6.65051,-0.50297 -1.00962,0.16432 -2.28552,0.61906 -2.83535,1.01053 -1.31533,0.93651 -3.43575,3.518 -4.22625,5.14523 -0.36846,0.75848 -0.91945,1.37612 -1.32449,1.48471 -1.0258,0.27501 -2.35662,0.23337 -2.55017,-0.0798 z m 18.57942,-12.3816 c 0.40469,-0.36662 0.99891,-1.17957 1.32049,-1.80656 0.74644,-1.45538 2.018,-6.49076 1.71367,-6.78614 -0.12699,-0.12326 -1.98668,1.59345 -4.13263,3.8149 -2.85997,2.96059 -3.87646,4.2155 -3.8071,4.70004 0.1816,1.2685 3.53251,1.32162 4.90557,0.0778 z"
     id="path405"
     inkscape:connector-curvature="0" />
  <path
     style="fill:#ffffff;stroke:none;stroke-width:0.3134703"
     d="m 956.44108,316.37229 c -0.0998,-0.16146 1.27762,-2.73583 3.06091,-5.72084 1.78329,-2.985 5.3409,-9.06921 7.9058,-13.52046 l 4.66345,-8.09319 8.79269,0.10988 c 4.83598,0.0604 9.02943,0.22231 9.31878,0.35971 0.47017,0.22327 0.48221,0.39557 0.11335,1.6212 -0.96001,3.18989 -4.40812,8.49047 -7.56071,11.62267 -2.63736,2.62029 -3.205,3.86811 -4.47606,9.83947 l -0.83406,3.91838 -2.93291,0.0906 c -3.26426,0.10085 -4.42759,-0.31934 -4.42759,-1.5992 0,-0.39075 0.57074,-2.60782 1.26832,-4.92682 1.38942,-4.61897 1.52071,-6.45268 0.45577,-6.36563 -0.96447,0.0788 -2.5674,2.18366 -5.51359,7.23996 -3.17677,5.45203 -3.51186,5.71657 -7.24183,5.71732 -1.32599,2.7e-4 -2.49254,-0.13161 -2.59232,-0.29306 z m 21.48256,-17.18242 c 3.27313,-1.65787 4.97337,-5.77698 2.64234,-6.40151 -0.53516,-0.14338 -1.3522,-0.11705 -1.89601,0.0611 -2.21429,0.72536 -5.73885,5.65355 -4.82813,6.7509 0.58109,0.70017 2.21307,0.53605 4.0818,-0.41048 z"
     id="path407"
     inkscape:connector-curvature="0" />
  <path
     style="fill:#ffffff;stroke:none;stroke-width:0.3134703"
     d="m 982.17679,316.42268 c -0.15461,-0.25016 0.62178,-1.65764 8.16585,-14.80341 2.42406,-4.22402 4.91135,-8.68431 5.5273,-9.91177 0.77718,-1.54876 1.34085,-2.29092 1.84188,-2.42511 0.92862,-0.24872 7.08578,-0.25207 8.01018,-0.004 0.3879,0.10396 0.7068,0.41942 0.7087,0.70103 0,0.2816 -1.0055,3.44256 -2.2387,7.02434 -1.2332,3.58177 -2.1376,6.6146 -2.0097,6.73961 0.2636,0.2578 1.4199,-0.98727 5.9026,-6.35559 3.879,-4.64541 6.3876,-7.27606 7.4958,-7.86054 0.5968,-0.31472 1.9609,-0.44643 4.6237,-0.44643 2.0775,0 3.7772,0.0699 3.7772,0.15524 0,0.0854 -3.1474,5.48099 -6.9942,11.99024 -3.8468,6.50925 -7.3883,12.56189 -7.87,13.45031 -0.7338,1.35328 -1.0394,1.6344 -1.8839,1.733 -1.6109,0.18805 -5.8217,-0.0993 -5.8217,-0.39727 0,-0.14954 1.6738,-3.06115 3.7197,-6.47025 4.0543,-6.75598 7.1141,-12.26876 7.4087,-13.34846 0.2691,-0.98613 -1.8441,1.33658 -7.6458,8.40397 -5.48382,6.6801 -9.00476,10.49548 -10.58921,11.47473 -1.31929,0.81536 -3.23795,0.61906 -3.23795,-0.33129 0,-0.32081 1.13447,-4.08782 2.52104,-8.37113 2.30595,-7.12339 3.1724,-10.45233 2.72051,-10.45233 -0.21826,0 -3.66106,5.44706 -6.04291,9.56085 -2.00966,3.47097 -4.45427,7.21162 -5.88974,9.01227 -0.87043,1.09186 -1.84534,1.50515 -2.19935,0.93235 z"
     id="path409"
     inkscape:connector-curvature="0" />
  <path
     style="fill:#ffffff;stroke:none;stroke-width:0.3134703"
     d="m 1017.4158,316.34293 c -2.159,-0.45281 -2.4081,-0.85826 -1.7613,-2.86673 1.4463,-4.4905 9.0673,-17.41925 12.3982,-21.03292 3.0184,-3.27458 3.2623,-3.34772 11.1902,-3.35594 3.6525,-0.004 7.0027,0.13068 7.4449,0.29883 0.606,0.23038 0.8041,0.52792 0.8041,1.20749 0,2.62847 -9.7557,19.20229 -13.5592,23.03561 -2.4758,2.49521 -3.5703,2.82161 -9.7943,2.92091 -2.931,0.0468 -5.9561,-0.0465 -6.7226,-0.20725 z m 12.3753,-6.02781 c 2.4077,-2.65934 9.374,-15.25474 9.181,-16.59964 -0.08,-0.5592 -0.3782,-0.74875 -1.4678,-0.93385 -2.799,-0.47544 -4.2223,0.87256 -8.4788,8.03023 -3.2979,5.54576 -5.4019,9.59202 -5.2899,10.17337 0.1254,0.65122 1.3366,0.96991 3.2161,0.84621 1.3947,-0.0918 1.6948,-0.25209 2.8394,-1.51632 z"
     id="path413"
     inkscape:connector-curvature="0" />
  <path
     style="fill:#ffffff;stroke:none;stroke-width:0.3134703"
     d="m 1039.2159,316.40243 c -0.09,-0.14488 2.3863,-4.69412 5.5019,-10.10942 3.1156,-5.4153 6.4998,-11.41764 7.5206,-13.33854 1.3145,-2.47374 2.0588,-3.54693 2.5514,-3.67899 1.2817,-0.34359 9.316,-0.22019 9.316,0.14308 0,0.18596 -0.6948,3.32458 -1.544,6.97471 -2.3419,10.06649 -2.8571,13.06275 -2.2459,13.06275 0.3315,0 2.9384,-4.19673 6.6205,-10.65799 3.1085,-5.45466 4.114,-6.99264 5.5849,-8.54206 2.0887,-2.20034 2.1796,-1.18713 0.2481,2.76561 -1.2087,2.4735 -9.3805,16.95353 -12.3407,21.86719 l -1.1012,1.82784 -3.7087,-0.10375 c -2.5078,-0.0702 -3.8404,-0.23592 -4.1154,-0.51191 -0.6825,-0.68506 -0.3916,-3.06868 1.2733,-10.4318 0.874,-3.86532 1.675,-7.87422 1.7801,-8.90867 l 0.1911,-1.88083 -0.8023,0.87433 c -1.5842,1.7264 -10.5727,17.37751 -11.0328,19.21069 -0.107,0.42646 -0.492,0.98369 -0.8555,1.23828 -0.7125,0.49907 -2.5754,0.62986 -2.8414,0.19948 z"
     id="path415"
     inkscape:connector-curvature="0" />
  <path
     style="fill:#ffffff;stroke:none;stroke-width:0.3134703"
     d="m 1071.3608,316.40412 c -0.3359,-0.22645 -0.012,-1.02357 1.5454,-3.80489 1.0836,-1.93513 2.4374,-4.91292 3.0083,-6.61732 1.2687,-3.78776 2.5849,-10.14367 2.8353,-13.69202 0.2272,-3.21969 0.2105,-3.20944 5.2403,-3.20944 h 3.5431 l -0.7342,4.15349 c -0.791,4.47433 -0.9053,5.87756 -0.4791,5.87756 0.4487,0 1.9094,-1.22198 5.2906,-4.42592 1.7659,-1.67331 4.0742,-3.619 5.1296,-4.32375 1.8114,-1.20959 3.1013,-1.62627 3.1013,-1.00181 0,0.43554 -2.4808,3.1602 -8.3078,9.12454 -5.8526,5.99047 -9.3384,10.1569 -11.5394,13.7927 -0.7829,1.29306 -1.8653,2.77355 -2.4055,3.28998 -0.8917,0.85241 -1.2043,0.94745 -3.3925,1.03115 -1.3257,0.0507 -2.6016,-0.0367 -2.8354,-0.19427 z"
     id="path417"
     inkscape:connector-curvature="0" />
</svg>
